<?xml version="1.0" encoding="utf-8"?>
<!-- Generator: Adobe Illustrator 27.0.0, SVG Export Plug-In . SVG Version: 6.00 Build 0)  -->
<svg version="1.1" id="Layer_1" xmlns="http://www.w3.org/2000/svg" xmlns:xlink="http://www.w3.org/1999/xlink" x="0px" y="0px"
	 viewBox="0 0 1920 1080" style="enable-background:new 0 0 1920 1080;" xml:space="preserve">
<style type="text/css">
	.st0{fill:#878666;}
</style>
<g>
	<line class="st0" x1="1032.5" y1="531.66" x2="1023.67" y2="534.92"/>
	<path class="st0" d="M1050.28,505.9l0.21-0.43h0.78l0.29,0.43l-0.24,1.04l0.67,4.1l-0.75-2.97h-0.41l0.48,1.74
		c0,0,0.19,0.36-0.42,1.74C1050.89,511.54,1051.59,510.84,1050.28,505.9z"/>
	<line class="st0" x1="1034.59" y1="528.1" x2="1026.9" y2="530.03"/>
	<path class="st0" d="M1027.46,546.99c0,0-2.14-4.51-0.97-13.87c0,0,0.69-5.63,1.17-6.33v-1.52c0,0,0.9-1.08,1.1-1.08s0.65,0,0.65,0
		s0.38,0.26,0.52,0.78l-0.55,2.08l-0.69,0.52c0,0-0.48,1.04-0.59,1.78c0,0-1.62,5.85-0.48,7.72c0.79,1.29,3.1,3.26,7.31,2.87
		c1.86-0.17,4.1-0.8,6.73-2.15c0,0,8.18-5.92,10.33-11.71c2.14-5.79,1.57-6.9,1.57-6.9l0.07,1.94l-2.53,8.01
		c0,0-3.03,4.85-4.14,5.81l-4.62,4.59c0,0-4.41,3.55-5.52,4.51c-1.1,0.95-4.76,4.77-4.76,4.77S1029.59,551.67,1027.46,546.99z"/>
	<path class="st0" d="M1028.11,529.35c0,0-1.45,5.03-0.48,7.72c0,0,0.27,0.39,0.83,0.88c1.45,1.26,4.88,3.19,10.92,1.07
		c0,0,4.72-1.56,10.64-9.67c5.91-8.11,3.15-14.61,0.81-22.76h-0.28c0,0,0.62,1.65,0.49,2.25c-0.14,0.61-1.45,4.07-2.62,5.03
		c-1.17,0.95-11.38,9.54-12.28,11.1c0,0-6.69,7.46-7.45,12.31C1028.7,537.28,1026.63,539.97,1028.11,529.35z"/>
	<ellipse class="st0" cx="1038.24" cy="522.49" rx="1.24" ry="1.93"/>
	<ellipse class="st0" cx="1036.69" cy="524.78" rx="1.62" ry="2.52"/>
	<ellipse class="st0" cx="1034.97" cy="526.11" rx="1.57" ry="2.45"/>
	<ellipse class="st0" cx="1032.93" cy="528.41" rx="2" ry="3.11"/>
	<ellipse class="st0" cx="1030.42" cy="531.6" rx="2" ry="3.11"/>
	<path class="st0" d="M1041.87,527.57c0,0,0.48,1.21,1.38,0l-1.1-33.03c0,0-0.32-0.26-0.54,0c-0.22,0.26,0.26,32.77,0.26,32.77"/>
	<path class="st0" d="M1051.9,509.63c0.14,0.36,4.52,10.49-1.16,19.7C1050.74,529.34,1055.49,521.76,1051.9,509.63z"/>
	<line class="st0" x1="1044.28" y1="533.91" x2="1054.93" y2="543.5"/>
	<line class="st0" x1="1046.85" y1="532.55" x2="1056.45" y2="538.78"/>
	<line class="st0" x1="1049.04" y1="530.03" x2="1055.5" y2="533.14"/>
	<line class="st0" x1="1051.22" y1="527.51" x2="1053.6" y2="529.29"/>
	<ellipse class="st0" cx="1043.24" cy="537.59" rx="2" ry="3.11"/>
	<ellipse class="st0" cx="1050.75" cy="526.62" rx="1.24" ry="1.93"/>
	<ellipse class="st0" cx="1049.51" cy="530.03" rx="1.62" ry="2.52"/>
	<ellipse class="st0" cx="1048.42" cy="532.48" rx="1.57" ry="2.45"/>
	<ellipse class="st0" cx="1046.37" cy="535.52" rx="2" ry="3.11"/>
	<path class="st0" d="M1028.18,493.83c0,0,5.35,9.63,28.98,2.23c0,0,4.59,23.57,1.44,30.58c-3.14,7.02-28.29-4.01-29.89-10.4
		C1028.71,516.23,1025.67,509.92,1028.18,493.83z"/>
</g>
</svg>
