<?xml version="1.0" encoding="utf-8"?>
<!-- Generator: Adobe Illustrator 27.0.0, SVG Export Plug-In . SVG Version: 6.00 Build 0)  -->
<svg version="1.1" id="Layer_1" xmlns="http://www.w3.org/2000/svg" xmlns:xlink="http://www.w3.org/1999/xlink" x="0px" y="0px"
	 viewBox="0 0 1920 1080" style="enable-background:new 0 0 1920 1080;" xml:space="preserve">
<style type="text/css">
	.st0{fill:#5B604F;}
</style>
<g>
	<line class="st0" x1="1084.43" y1="632.85" x2="1069.46" y2="638.37"/>
	<path class="st0" d="M1114.53,589.21l0.35-0.73h1.31l0.49,0.73l-0.4,1.76l1.14,6.94l-1.27-5.04h-0.69l0.82,2.94
		c0,0,0.32,0.61-0.71,2.95C1115.57,598.77,1116.75,597.58,1114.53,589.21z"/>
	<line class="st0" x1="1087.97" y1="626.82" x2="1074.93" y2="630.08"/>
	<path class="st0" d="M1075.87,658.8c0,0-3.62-7.63-1.64-23.49c0,0,1.17-9.54,1.99-10.72v-2.58c0,0,1.52-1.83,1.87-1.83
		c0.35,0,1.1,0,1.1,0s0.65,0.44,0.89,1.32l-0.93,3.52l-1.17,0.88c0,0-0.82,1.76-0.99,3.01c0,0-2.74,9.91-0.82,13.07
		c1.34,2.19,5.25,5.52,12.38,4.87c3.15-0.29,6.94-1.36,11.4-3.64c0,0,13.86-10.04,17.49-19.84c3.63-9.8,2.65-11.68,2.65-11.68
		l0.12,3.28l-4.28,13.57c0,0-5.14,8.22-7.01,9.84l-7.83,7.78c0,0-7.48,6.02-9.34,7.63s-8.06,8.08-8.06,8.08
		S1079.49,666.73,1075.87,658.8z"/>
	<path class="st0" d="M1076.98,628.92c0,0-2.45,8.52-0.82,13.07c0,0,0.45,0.66,1.41,1.49c2.46,2.13,8.26,5.4,18.5,1.81
		c0,0,8-2.64,18.02-16.37c10.01-13.73,5.34-24.74,1.37-38.54H1115c0,0,1.06,2.79,0.82,3.82c-0.23,1.03-2.45,6.9-4.44,8.52
		c-1.99,1.61-19.27,16.15-20.79,18.79c0,0-11.33,12.63-12.61,20.85C1077.98,642.36,1074.47,646.91,1076.98,628.92z"/>
	<ellipse class="st0" cx="1094.14" cy="617.31" rx="2.09" ry="3.26"/>
	<ellipse class="st0" cx="1091.52" cy="621.19" rx="2.74" ry="4.27"/>
	<ellipse class="st0" cx="1088.6" cy="623.45" rx="2.66" ry="4.14"/>
	<ellipse class="st0" cx="1085.14" cy="627.34" rx="3.38" ry="5.27"/>
	<ellipse class="st0" cx="1080.9" cy="632.74" rx="3.38" ry="5.27"/>
	<path class="st0" d="M1100.28,625.91c0,0,0.81,2.06,2.33,0l-1.86-55.94c0,0-0.54-0.44-0.91,0c-0.37,0.44,0.44,55.5,0.44,55.5"/>
	<path class="st0" d="M1117.28,595.54c0.24,0.6,7.65,17.76-1.97,33.37C1115.31,628.91,1123.35,616.08,1117.28,595.54z"/>
	<line class="st0" x1="1104.38" y1="636.65" x2="1122.4" y2="652.89"/>
	<line class="st0" x1="1108.72" y1="634.35" x2="1124.97" y2="644.9"/>
	<line class="st0" x1="1112.42" y1="630.08" x2="1123.37" y2="635.36"/>
	<line class="st0" x1="1116.12" y1="625.82" x2="1120.15" y2="628.83"/>
	<ellipse class="st0" cx="1102.61" cy="642.89" rx="3.38" ry="5.27"/>
	<ellipse class="st0" cx="1115.32" cy="624.31" rx="2.09" ry="3.26"/>
	<ellipse class="st0" cx="1113.23" cy="630.08" rx="2.74" ry="4.27"/>
	<ellipse class="st0" cx="1111.38" cy="634.23" rx="2.66" ry="4.14"/>
	<ellipse class="st0" cx="1107.92" cy="639.37" rx="3.38" ry="5.27"/>
	<path class="st0" d="M1077.11,568.76c0,0,9.07,16.3,49.08,3.77c0,0,7.77,39.91,2.45,51.8c-5.32,11.88-47.91-6.79-50.63-17.62
		C1078.01,606.71,1072.84,596.03,1077.11,568.76z"/>
</g>
</svg>
