<?xml version="1.0" encoding="utf-8"?>
<!-- Generator: Adobe Illustrator 27.0.0, SVG Export Plug-In . SVG Version: 6.00 Build 0)  -->
<svg version="1.1" id="Layer_1" xmlns="http://www.w3.org/2000/svg" xmlns:xlink="http://www.w3.org/1999/xlink" x="0px" y="0px"
	 viewBox="0 0 1920 1080" style="enable-background:new 0 0 1920 1080;" xml:space="preserve">
<style type="text/css">
	.st0{fill:#242D11;}
</style>
<g>
	<line class="st0" x1="1129.84" y1="623.24" x2="1101.76" y2="632.02"/>
	<path class="st0" d="M1186.34,553.9l0.66-1.17h2.46l0.92,1.17l-0.75,2.8l2.13,11.03l-2.37-8h-1.3l1.53,4.67c0,0,0.6,0.97-1.34,4.68
		C1188.28,569.09,1190.5,567.2,1186.34,553.9z"/>
	<line class="st0" x1="1136.48" y1="613.67" x2="1112.03" y2="618.85"/>
	<path class="st0" d="M1113.79,664.49c0,0-6.79-12.13-3.07-37.33c0,0,2.19-15.16,3.73-17.03v-4.09c0,0,2.85-2.91,3.51-2.91
		s2.07,0,2.07,0s1.22,0.7,1.66,2.1l-1.75,5.6l-2.19,1.4c0,0-1.53,2.8-1.86,4.78c0,0-5.15,15.75-1.53,20.76
		c2.51,3.48,9.85,8.77,23.23,7.74c5.92-0.46,13.02-2.15,21.4-5.79c0,0,26.01-15.95,32.82-31.52c6.81-15.57,4.98-18.56,4.98-18.56
		l0.22,5.22l-8.03,21.56c0,0-9.64,13.06-13.15,15.63l-14.68,12.36c0,0-14.03,9.57-17.53,12.13c-3.51,2.57-15.12,12.83-15.12,12.83
		S1120.59,677.09,1113.79,664.49z"/>
	<path class="st0" d="M1115.88,617.01c0,0-4.6,13.53-1.53,20.76c0,0,0.84,1.05,2.65,2.37c4.61,3.38,15.51,8.58,34.72,2.88
		c0,0,15.02-4.2,33.81-26.01s10.03-39.31,2.57-61.24h-0.89c0,0,1.98,4.43,1.55,6.07c-0.44,1.63-4.6,10.97-8.33,13.53
		s-36.16,25.66-39.01,29.86c0,0-21.26,20.06-23.67,33.13C1117.74,638.36,1111.16,645.59,1115.88,617.01z"/>
	<ellipse class="st0" cx="1148.08" cy="598.55" rx="3.93" ry="5.19"/>
	<ellipse class="st0" cx="1143.15" cy="604.73" rx="5.13" ry="6.78"/>
	<ellipse class="st0" cx="1137.68" cy="608.31" rx="4.98" ry="6.58"/>
	<ellipse class="st0" cx="1131.19" cy="614.49" rx="6.34" ry="8.38"/>
	<ellipse class="st0" cx="1123.22" cy="623.08" rx="6.34" ry="8.38"/>
	<path class="st0" d="M1159.6,612.23c0,0,1.52,3.27,4.38,0l-3.5-88.89c0,0-1.01-0.7-1.71,0c-0.7,0.7,0.83,88.19,0.83,88.19"/>
	<path class="st0" d="M1191.49,563.96c0.45,0.96,14.35,28.22-3.69,53.03C1187.79,616.99,1202.88,596.6,1191.49,563.96z"/>
	<line class="st0" x1="1167.28" y1="629.29" x2="1201.1" y2="655.09"/>
	<line class="st0" x1="1175.43" y1="625.64" x2="1205.93" y2="642.39"/>
	<line class="st0" x1="1182.38" y1="618.85" x2="1202.91" y2="627.23"/>
	<line class="st0" x1="1189.32" y1="612.07" x2="1196.87" y2="616.86"/>
	<ellipse class="st0" cx="1163.96" cy="639.2" rx="6.34" ry="8.38"/>
	<ellipse class="st0" cx="1187.81" cy="609.68" rx="3.93" ry="5.19"/>
	<ellipse class="st0" cx="1183.89" cy="618.85" rx="5.13" ry="6.78"/>
	<ellipse class="st0" cx="1180.41" cy="625.44" rx="4.98" ry="6.58"/>
	<ellipse class="st0" cx="1173.92" cy="633.62" rx="6.34" ry="8.38"/>
	<path class="st0" d="M1116.11,521.42c0,0,17.02,25.9,92.1,5.99c0,0,14.57,63.42,4.59,82.3s-89.9-10.79-95-28
		C1117.8,581.72,1108.11,564.74,1116.11,521.42z"/>
</g>
</svg>
