<?xml version="1.0" encoding="utf-8"?>
<!-- Generator: Adobe Illustrator 27.0.0, SVG Export Plug-In . SVG Version: 6.00 Build 0)  -->
<svg version="1.1" id="Layer_1" xmlns="http://www.w3.org/2000/svg" xmlns:xlink="http://www.w3.org/1999/xlink" x="0px" y="0px"
	 viewBox="0 0 1920 1080" style="enable-background:new 0 0 1920 1080;" xml:space="preserve">
<style type="text/css">
	.st0{fill:#0B3835;}
	.st1{fill:none;}
</style>
<path class="st0" d="M1920.67,455.96c0.17,0.15,0.34,0.3,0.5,0.44v14.25l-0.5-0.13v292.33l-50.31,10.56l-2.77,0.58l-0.16,0.03
	l-175.4,36.79h-0.01l-537.72,112.8l91.12-44.15l128.21-114.34l33.05-67.38l24.27-49.5l19.84-40.46l67.52-83.31l3.19-3.93
	l101.35-61.01l22.49-11.15l2.9-1.44l13.58-6.73l25.26-12.53l19.51-9.67l9.86-12.51l2.88-3.65v-0.01l2.46-3.12l10.96-13.91l1.82-2.31
	l1.16-1.48l15.42-19.57l1.55-1.97l8.09-10.27l0.08-0.11l0.4-0.5l0.72-0.92l12.1-15.34l3.75-1.72l2.26-1.04h0.01l3.72-1.7l0.86-0.39
	h0.01l32.33-14.81l9.16-4.19l0.09-0.04l5.91-2.71l52.81-24.17l3.67-1.68l1.62-0.74l0.9-0.41l19.54-8.94l7.94-1.67l1.5-0.32V382.5
	h0.5v13.28l0.5-0.01v0.61c-0.16-0.03-0.33-0.07-0.5-0.12V455.96z"/>
<path class="st0" d="M2127.2,699.68c-0.06-0.02-0.24-0.11-0.52-0.26c0.2,0.07,0.33,0.13,0.4,0.17
	C2127.14,699.63,2127.18,699.65,2127.2,699.68z"/>
<path class="st0" d="M537.19,994.88L432.16,860.77l-48.78-62.29l-43.54-55.6l-85.76-109.5l-0.01-0.01l-75.64-96.6L82.67,414.49
	l-61.92-79.07L-0.33,308.5V0h179.76c19.45,15.84,27.81,39.64,27.81,39.64l61.38,43.93l44.79,79.92c0,0-11.61,3.78-1.22,23.95
	c10.4,20.16,26.41,81.94,26.41,81.94S322.38,321,324.14,326.7c1.76,5.69-4.88,14.43-4.74,24.94c0.11,8.49,0.33,26.13,6.8,42.54
	c0.05,0.16,0.12,0.33,0.19,0.49c1.49,3.73,3.31,7.39,5.53,10.85c12.07,18.86,24.96,100.76,24.96,100.76s-1.77,2.33-4.16,6.09
	c-2.25,3.53-5.03,8.31-7.41,13.59c-4.93,10.93,8.81,28.48,24.27,48.22c15.46,19.74,7.51,57.81,17.72,63.96
	c4.15,2.5,11.32,22.49,19.06,47.4c2.67,8.57,5.41,17.73,8.12,26.96c6.18,21.09,12.21,42.54,16.92,58.26
	c1.98,6.62,3.72,12.23,5.14,16.36c0.76,2.22,1.58,4.35,2.44,6.39c11.02,26.16,29.53,38.63,42.4,64.65c0.93,1.89,1.99,4.14,3.16,6.71
	C500.57,900.06,536.59,993.32,537.19,994.88z"/>
<path class="st0" d="M1863.2,222.16c-1.8,2.22-3.77,3.83-5.89,4.43C1850.75,228.45,1857.02,225.15,1863.2,222.16z"/>
<path class="st0" d="M1861.05,196.84c-2.33,1.53-4.92,2.38-7.76,2.34L1861.05,196.84z"/>
<path class="st0" d="M1921.17,229.57v28.74l-0.5,0.18l-0.5,0.17v27c-0.51-0.18-1.01-0.36-1.5-0.53c-6.17-2.19-10.33-3.66-10.33-3.66
	l7.46,39.98l1.13,6.07l0.38,2l1.36,7.29l0.7,3.75l0.76,4.09l0.04,0.21v4.56l-1.5-0.35l-29.72-6.85l-0.25-55.99l-0.03-6.34v-0.98
	l-4.5,1.63l-39.27,14.2l28.24-21.51l1.86-1.42l-23.77,2.21c0.73-0.15,5.01-1.2,10.89-5.51c6.47-4.74,2.55-9.26,2.55-9.26
	l-17.43,0.25l24.1-24.34l5-5.05c-0.19,0.12-2.82,1.68-5.96,3.49c-6.26,3.58-14.57,8.11-9.82,4.02c2.8-2.41,5.11-5.88,6.87-9.22
	c2.69-5.11,4.14-9.9,4.22-10.2c-0.22,0.09-3.76,1.71-7.57,3.54c-0.29,0.14-0.59,0.28-0.88,0.42c0.23-0.28,0.45-0.56,0.67-0.86
	c1.29-1.73,2.49-3.75,3.59-5.92c5.09-9.99,8.06-22.89,8.06-22.89l-14.46,4.35c18.7-12.19,22.09-67.92,22.09-67.92
	c14.21,45.59,27.16,61.02,35.52,65.92c0.52,0.31,1.02,0.57,1.5,0.8c0.11,0.06,0.22,0.1,0.32,0.15l-0.32-0.03l-1.5-0.13l-13.02-1.12
	c0.86,5.86,7.65,15.18,13.02,21.76c0.51,0.64,1.02,1.24,1.5,1.82c0.17,0.2,0.33,0.4,0.5,0.6v3.38l-0.5-0.21l-1.5-0.62l-6.21-2.59
	c1.3,1.6,3.66,4.55,6.21,7.77c0.49,0.62,1,1.26,1.5,1.89c0.16,0.21,0.33,0.42,0.5,0.63S1921.01,229.36,1921.17,229.57z"/>
<path class="st0" d="M1920.67,195.81v0.06c-0.06-0.03-0.12-0.05-0.18-0.08L1920.67,195.81z"/>
<path class="st0" d="M1970.58,304.06c-0.03-0.02-0.08-0.06-0.17-0.12c0.08,0.04,0.13,0.07,0.15,0.09
	C1970.57,304.04,1970.58,304.04,1970.58,304.06z"/>
<path class="st0" d="M1830.2,278.16c-1.8,2.22-3.77,3.83-5.89,4.43C1817.75,284.45,1824.02,281.15,1830.2,278.16z"/>
<path class="st0" d="M1828.05,252.84c-2.33,1.53-4.92,2.38-7.76,2.34L1828.05,252.84z"/>
<path class="st0" d="M1887.49,251.79l7.87,0.68C1895.36,252.47,1892.44,254.02,1887.49,251.79z"/>
<path class="st0" d="M1916.93,327.52l-1.93-0.6l2.31,2.6l1.36,1.53l1.5,1.7v8.23l-0.8-0.42l-0.7-0.37l-3.05-1.63
	c0.58,1.29,1.66,2.81,3.05,4.45c0.46,0.53,0.95,1.08,1.46,1.64c0.01,0.01,0.02,0.03,0.04,0.04v8.8c-0.49-0.18-0.99-0.36-1.5-0.54
	c-18.31-6.63-43.33-15.48-43.33-15.48l6.8,36.43l0.68,3.63l0.92,4.97l2.57,13.77l1.32,7.05l0.41,2.18l0.02,0.13l-0.56-0.13
	l-3.39-0.78l-11.61-2.68l-16.55-3.82l-0.07-15.72l-0.05-11.48l-0.08-17.72l-0.03-5.44v-0.62l-0.01-2.24l-0.02-5.14l-0.01-3.39
	l-0.01-1.02v-0.54l-0.37,0.13l-1.94,0.7l-1,0.37l-4.52,1.63l-17.67,6.39l-4.62,1.67l-1.15,0.42l-12.5,4.52l8.43-6.42l20.48-15.6
	l1.19-0.91l-1.75,0.16l-22.02,2.05c0.73-0.15,5.01-1.2,10.89-5.51c3.44-2.52,3.94-4.98,3.66-6.73c-0.25-1.54-1.11-2.53-1.11-2.53
	l-0.68,0.01l-16.75,0.24l2.79-2.82l7.2-7.27l4.26-4.31l0.49-0.49l2.52-2.55l11.84-11.95c-0.37,0.22-10.03,5.98-14.7,8.23
	c-2.48,1.2-3.56,1.41-1.08-0.72c0.11-0.1,0.23-0.2,0.34-0.3c2.46-2.22,4.53-5.25,6.16-8.23c0.06-0.1,0.11-0.2,0.16-0.29
	c2.19-4.07,3.59-8.01,4.16-9.72c0.17-0.5,0.26-0.81,0.27-0.88c-0.1,0.04-0.94,0.42-2.19,1c-1.61,0.75-3.93,1.83-6.26,2.96
	c0.67-0.82,1.31-1.72,1.93-2.69c6.5-10.1,10.39-26.98,10.39-26.98l-14.46,4.35c8.29-5.41,13.57-19.37,16.88-33.23
	c4.16-17.42,5.21-34.69,5.21-34.69c1.55,4.95,3.07,9.55,4.58,13.82v0.01c0.04,0.12,0.09,0.23,0.13,0.35
	c2.2,6.2,4.36,11.69,6.46,16.56c0.86,1.98,1.71,3.86,2.55,5.64c0.07,0.15,0.14,0.3,0.21,0.44c1.14,2.4,2.25,4.61,3.35,6.66
	c1,1.87,1.99,3.6,2.95,5.2c0.32,0.54,0.64,1.06,0.96,1.56c6.45,10.27,12.01,14.77,16.15,16.63l-14.84-1.28
	c0.81,5.48,6.8,13.99,11.96,20.46c2.71,3.39,5.2,6.23,6.58,7.77c0.64,0.72,1.04,1.16,1.12,1.25l-2.02-0.84l-10.83-4.5
	c1.04,1.28,2.76,3.43,4.71,5.89c0.27,0.34,0.55,0.68,0.83,1.03c1.2,1.51,2.46,3.11,3.7,4.66c3.94,4.97,7.56,9.55,7.77,9.82
	l-6.38-2.78l25.71,28.18l2.87,3.15l1.5,1.64v2.29l-1.5-0.47L1916.93,327.52z"/>
<path class="st0" d="M1937.58,360.06c-0.03-0.02-0.08-0.06-0.17-0.12c0.08,0.04,0.13,0.07,0.15,0.09
	C1937.57,360.04,1937.58,360.04,1937.58,360.06z"/>
<path class="st0" d="M1807.96,239.77c0,0-2.88,47.42-20.06,47.2l14.93-4.5c0,0-4.8,20.8-12.23,22.91s9.64-5.64,9.64-5.64
	s-2.6,8.88-7.46,13.06c-4.85,4.17,10.61-5.05,10.61-5.05l-19.56,19.75l11.71-0.17c0,0,2.63,3.03-1.71,6.22s-7.39,3.71-7.39,3.71
	l16.04-1.49l-20.22,15.4l29.41-10.64l0.19,42.54l21.58,4.98l-8.55-45.79c0,0,41.1,14.55,41.8,15.15c0.69,0.6-12.53-9.51-14.73-14.43
	l12.37,6.6l-12.79-14.42l5.44,1.7l-22.18-24.3l4.29,1.87c0,0-8.85-11.2-11.43-14.38l8.64,3.59c0,0-12.24-13.19-13.21-19.81
	l15.26,1.31C1838.34,285.15,1824.41,292.52,1807.96,239.77z"/>
<path class="st0" d="M1746.15,237.92c0,0-4.29,70.58-29.85,70.26l22.22-6.69c0,0-7.14,30.96-18.2,34.1s14.34-8.4,14.34-8.4
	s-3.88,13.22-11.1,19.43c-7.22,6.21,15.8-7.52,15.8-7.52l-29.11,29.4l17.43-0.25c0,0,3.92,4.52-2.55,9.26
	c-6.47,4.74-10.99,5.52-10.99,5.52l23.88-2.22l-30.1,22.93l43.77-15.84l0.28,63.32l32.12,7.41l-12.72-68.16
	c0,0,61.18,21.66,62.21,22.56c1.03,0.9-18.66-14.15-21.93-21.47l18.41,9.83L1811,379.92l8.1,2.53l-33.01-36.18l6.39,2.79
	c0,0-13.18-16.67-17.02-21.41l12.86,5.35c0,0-18.22-19.63-19.67-29.49l22.71,1.96C1791.37,305.47,1770.64,316.44,1746.15,237.92z"/>
<path class="st0" d="M1562.56,501.07c-16.5-0.81-18.28-8.47-18.28-8.47c7.26,6.16,14.59,0.06,14.59,0.06
	c-14.12,1.59-14.29-8.55-14.29-8.55c1.25,6.54,31.21,5.68,31.21,5.68c-16.02,0.84-28.94-13.95-28.94-13.95l15.73,1.79
	c-13.1-1.49-17.63-8.4-17.63-8.4c4.94,3.23,20.19,3.36,20.19,3.36l-9.65-2.7l13.52-2.19c-23.41,1.6-23.35-10.65-23.35-10.65
	l25.95,2.37c-22.66-2.09-23.98-8.01-23.98-8.01l15.24-0.21l2.15-1.01c-21.8-0.88-19.53-9.15-19.53-9.15
	c6.79,4.5,25.37,4.48,25.37,4.48c-9.23-0.52-22.51-6.29-22.51-6.29c3.16,1.42,18.17-2.2,18.17-2.2l-5.3-0.07
	c-6.79,1.36-16.74-4.57-16.74-4.57l1.14-10l3.16,1.42c4.35,2.63,15.19,0.66,15.19,0.66c-7.27-0.29-13.52-3.67-13.52-3.67l14.36,2.16
	l5.48-1.51c-14.24,2.65-22.81-9.52-22.81-9.52l0.06-6.39c5.54,3.83,19,2.16,19,2.16c-7.21-0.82-16.14-6.9-16.14-6.9l0.36-9.02
	l7.45-1.29c-5.3-0.07-8.87-3.67-8.87-3.67l-0.94-4.33l2.31-1.91c-3.34,0.15-5.3-5.93-5.3-5.93s-4.77,6.92-9.53,7.98
	c-4.77,1.06,6.73-0.83,6.73-0.83l-0.42,3.68c0,0-10.85,7.83-13.41,7.01c-2.56-0.82,12.48,1.15,14.7-0.86l-2.49,4.38l-19.72,15.88
	c0,0-0.42,3.74,20.82-8l-2.77,12.72c0,0-10.77,7.17-19.09,4.42c0,0,8.02,5.34,19.63,2.48l-1.06,9.32c0,0-3.25,5.21-21.65,3.65
	l11.61,2.92c0,0-8.35,1.91-14.74,1.18c-0.91-0.1-1.79-0.26-2.59-0.49c-6.43-1.8,8.53,6.68,26.19,3.17l-1.16,10.17
	c0,0-6.75,6.86-21.64,3.57l20.94,2.6c0,0-15.7,3.86-21.01,3.79c-5.3-0.07,17.62,2.67,20.42,1.32c0,0-15.58,10.7-29.26,10.34
	c0,0,15.8,2.99,26.76-0.03c0,0-3.29,9.58-13.65,8.23l16.19,1.84l-0.7,6.13c0,0-16.26,5.62-24.66,3.6
	c-8.4-2.02,15.55,3.37,15.55,3.37s-8.46,4.37-14.83,2.05c0,0,12.14,4.64,22.6,2.87l-2.16,19.02l8.24,0.94l2.15-18.88l6.88,3.01
	l0.31-2.69c0,0,10.46,3.53,16.44,1.99l11.13-2.27L1562.56,501.07z"/>
<path class="st0" d="M1625.3,341.48c0,0-2.98,48.04-20.26,47.86l15.02-4.58c0,0-4.86,21.08-12.34,23.23s9.7-5.73,9.7-5.73
	s-2.64,9-7.52,13.24c-4.89,4.24,10.68-5.14,10.68-5.14l-19.71,20.04l11.78-0.19c0,0,2.64,3.07-1.73,6.31s-7.43,3.77-7.43,3.77
	l16.14-1.54l-20.37,15.64l29.59-10.83l0.11,43.1l21.69,5l-8.51-46.38c0,0,41.31,14.67,42.01,15.28c0.7,0.61-12.59-9.61-14.79-14.59
	l12.43,6.67l-12.84-14.59l5.47,1.71l-22.26-24.58l4.31,1.89c0,0-8.88-11.33-11.47-14.55l8.68,3.62c0,0-12.29-13.34-13.25-20.05
	l15.34,1.3C1655.77,387.41,1641.75,394.91,1625.3,341.48z"/>
<path class="st0" d="M1602.94,379.64c0,0-2.98,48.04-20.26,47.86l15.02-4.58c0,0-4.86,21.08-12.34,23.23s9.7-5.73,9.7-5.73
	s-2.64,9-7.52,13.24s10.68-5.14,10.68-5.14l-19.71,20.04l11.78-0.19c0,0,2.64,3.07-1.73,6.31c-4.38,3.24-7.43,3.77-7.43,3.77
	l16.14-1.54l-20.37,15.64l29.59-10.83l0.11,43.1l21.69,5l-8.51-46.38c0,0,41.31,14.67,42.01,15.28c0.7,0.61-12.59-9.61-14.79-14.59
	l12.43,6.67l-12.84-14.59l5.47,1.71l-22.26-24.58l4.31,1.89c0,0-8.88-11.33-11.47-14.55l8.68,3.62c0,0-12.29-13.34-13.25-20.05
	l15.34,1.3C1633.4,425.57,1619.39,433.06,1602.94,379.64z"/>
<rect x="1919.67" y="-43.5" class="st1" width="146" height="605"/>
<polygon class="st0" points="-0.33,308.5 -0.33,1080.5 1918.67,1080.5 1920.67,762.85 1154.3,923.61 537.19,994.88 "/>
</svg>
