<?xml version="1.0" encoding="utf-8"?>
<!-- Generator: Adobe Illustrator 27.0.0, SVG Export Plug-In . SVG Version: 6.00 Build 0)  -->
<svg version="1.1" id="Layer_1" xmlns="http://www.w3.org/2000/svg" xmlns:xlink="http://www.w3.org/1999/xlink" x="0px" y="0px"
	 viewBox="0 0 1920 1080" style="enable-background:new 0 0 1920 1080;" xml:space="preserve">
<style type="text/css">
	.st0{fill:#C8E690;}
	.st1{fill:#DEEAC3;}
	.st2{fill:#D1E090;}
	.st3{fill:#D6EA93;}
	.st4{fill:#94BF9E;}
	.st5{fill:#78B188;}
	.st6{fill:url(#SVGID_1_);}
	.st7{fill:none;}
</style>
<path class="st0" d="M1866.05-0.33v9.48h-1.95v184.96c0.51,0.31,0.99,0.57,1.46,0.8c0.11,0.06,0.21,0.1,0.31,0.15l0.18,0.02v71.33
	l-0.34,0.5l-0.15,0.03v81.44l-1.46-0.35v216.99h1.95V1067H77.08V-0.33H1866.05z"/>
<ellipse class="st1" cx="1035.32" cy="168.32" rx="65.7" ry="67.36"/>
<path class="st2" d="M950.51,350.09l-351.77-9.33L227.71,57.37l38.78-57.2h413.85c5.28,24.21,3,59.73,3,59.73
	s29.77-24.9,39.58,15.93c9.8,40.85,23.94,27.82,23.94,27.82c73.45-17.77,100.81,34.11,100.08,38.31
	c-0.74,4.21-19.29,42.45-11.09,43.96c8.21,1.5,17.21,17.91,16.85,24.78c-0.35,6.88-22.71,18.39-22.71,18.39l-3.7,11.47
	c0,0,16.87,34.33,25.43,28.96c8.57-5.37,47.34-13.87,49.29,18.59s13.91,41.6,25.11,45.38C933.64,336.04,943.35,341.34,950.51,350.09
	z"/>
<path class="st3" d="M1076.69,403.92c0,0-26.11-80.32-41.03-76.5c-14.92,3.82-20.52,3.82-27.98-9.56
	c-7.46-13.39-57.82,5.74-57.82,5.74c-22.38-34.42-26.11-38.25-26.11-38.25s-5.6-16.45,0-28.31c5.6-11.86-78.34-80.7-78.34,32.13
	l-3.73,13.39c0,0-7.46,3.82-14.92,0s-11.19-17.21-11.19-21.04s-18.65-17.21-29.84-15.3c-11.19,1.91,7.46-51.64-7.46-63.11
	s-33.57-9.56-44.76-5.74c-11.19,3.82-26.11,3.82-46.63-21.04c-20.52-24.86-46.63,5.74-50.36,15.3c-3.73,9.56-37.3-7.65-37.3-7.65
	l-3.73-11.47c0,0,11.19-22.95,7.46-28.69c-3.73-5.74-20.52-13.39-27.98-9.56c-7.46,3.82-14.92-38.25-16.79-42.07
	c-1.87-3.82-54.09-28.69-102.59,30.6c0,0-3.73,19.12-35.44-7.65s-41.03,11.47-41.03,11.47s-44.76-70.76-63.42-53.55
	s-14.92-34.42-14.92-34.42s-74.61-93.71-111.91,21.04l-9.33,19.12c0,0-24.25-7.65-44.76,5.74s-24.25,65.02-24.25,65.02l-7.46,24.86
	c0,0-13.06-3.82-18.65,9.56s0,30.6-11.19,32.51c-11.19,1.91-27.98-5.74-33.57,0s11.19,28.96,0,30.74C28.45,249.02,7,241.01,7,241.01
	l5.43,162.92H1076.69z"/>
<path class="st2" d="M1868-0.33v2h-1.46v97.39l-341.46,254.18l-368.36,16.07c7.66-8.96,17.92-14.49,25.83-17.21
	c11.52-3.94,23.9-13.04,26.9-44.06c0.07-0.72,0.14-1.45,0.19-2.2c2.62-32.78,43.05-24.93,51.93-19.68
	c8.87,5.26,27.15-29.69,27.15-29.69l-3.67-11.51c0,0-23.19-11.19-23.44-18.12c-0.25-6.93,9.46-23.64,18.08-25.31
	c8.61-1.68-10.11-39.91-10.81-44.13c-0.69-4.22,28.88-57.06,105.43-40.54c0,0,14.57,12.86,25.57-28.52
	c10.99-41.38,41.72-16.83,41.72-16.83s-2.4-49.37,8.08-71.85H1868z"/>
<path class="st3" d="M1866.21,97.86l-0.16,0.11v168.44l-0.34,0.5l-0.15,0.03v114.46h-726.74c0,0,31.89-79.1,50.12-75.33
	c8,1.66,13.81,2.57,18.57,1.98c6.09-0.76,10.48-4,15.59-11.4c9.11-13.18,70.61,5.65,70.61,5.65c27.33-33.89,31.89-37.66,31.89-37.66
	s6.84-16.2,0-27.87c-6.83-11.68,95.68-79.47,95.68,31.65l4.56,13.18c0,0,9.11,3.76,18.22,0c9.11-3.77,13.67-16.96,13.67-20.72
	c0-3.77,22.78-16.95,36.45-15.07c13.67,1.89-9.11-50.85,9.11-62.14c18.22-11.3,41-9.42,54.66-5.65c10.86,2.98,24.6,3.6,42.34-8.55
	c4.59-3.13,9.46-7.13,14.61-12.17c3.33-3.25,6.77-5.54,10.27-7.04c7.76-3.34,15.7-2.79,22.97-0.29
	c14.11,4.84,25.66,17.01,28.27,22.39c2.96,6.12,21.34,1.1,33.82-3.17c6.73-2.29,11.74-4.36,11.74-4.36l4.56-11.3
	c0,0-13.68-22.6-9.11-28.25c4.56-5.65,25.05-13.18,34.16-9.41c9.11,3.76,18.22-37.67,20.5-41.44c1.85-3.06,44.37-19.82,92.04,5.4
	c0.17,0.09,0.33,0.18,0.49,0.27c0.49,0.26,0.97,0.52,1.46,0.79c0.19,0.11,0.39,0.22,0.58,0.33
	C1866.43,86.46,1865.45,92.44,1866.21,97.86z"/>
<path class="st4" d="M770.24,373.05l16.93-21.54c1.89-2.4,5.08-3.27,7.88-2.13l58.25,23.71c1.44,0.58,3.02,0.66,4.5,0.2l31.86-9.77
	c2.88-0.88,5.95-0.93,8.86-0.12l65.72,18.19c0.93,0.26,1.9,0.31,2.85,0.16l124-19.82c1.97-0.32,3.99,0.27,5.51,1.59l40.6,35.4
	c4.87,4.24,1.94,12.41-4.45,12.41h-398.2c-6.93,0-9.5-9.32-3.6-13.04l37.54-23.66C769.16,374.21,769.75,373.67,770.24,373.05z"/>
<path class="st4" d="M1266.25,366.01l19.25-11.17c1.55-0.9,3.36-1.2,5.1-0.86l61.68,12.03l38.56-11.82l71.57,19.81l128.55-20.55
	l57.22,49.9h-441.16L1266.25,366.01z"/>
<polygon class="st5" points="1054.06,392 1069.96,383.81 1117.25,392 1145.58,384.29 1198.15,397.2 1292.58,383.81 1334.62,416.32 
	1010.55,416.32 "/>
<linearGradient id="SVGID_1_" gradientUnits="userSpaceOnUse" x1="933.1201" y1="921.2958" x2="933.1201" y2="403.3476">
	<stop  offset="0" style="stop-color:#C8E690"/>
	<stop  offset="0.4459" style="stop-color:#C9E692"/>
	<stop  offset="0.5593" style="stop-color:#CAE695"/>
	<stop  offset="1" style="stop-color:#DEEAC3"/>
</linearGradient>
<rect x="434.29" y="403.35" class="st6" width="997.66" height="517.95"/>
<path class="st7" d="M1866.54,228.77v28.68l-0.49,0.18v8.77l-0.34,0.5l-0.15,0.03v81.44l-1.46-0.35V194.11
	c0.51,0.31,0.99,0.57,1.46,0.8c0.11,0.06,0.21,0.1,0.31,0.15l0.18,0.02v33.06C1866.22,228.35,1866.38,228.56,1866.54,228.77z"/>
</svg>
