<?xml version="1.0" encoding="utf-8"?>
<!-- Generator: Adobe Illustrator 27.0.0, SVG Export Plug-In . SVG Version: 6.00 Build 0)  -->
<svg version="1.1" id="Layer_1" xmlns="http://www.w3.org/2000/svg" xmlns:xlink="http://www.w3.org/1999/xlink" x="0px" y="0px"
	 viewBox="0 0 1920 1080" style="enable-background:new 0 0 1920 1080;" xml:space="preserve">
<style type="text/css">
	.st0{fill:#50936A;}
</style>
<path class="st0" d="M278.62,323.41c-0.21-1.04,0.81-1.9,1.8-1.51c6.63,2.64,25.97,10.43,35.1,15.32
	c9.7,5.19,31.69,29.6,37.14,35.74c0.61,0.69,1.71,0.57,2.16-0.24l12.56-22.33c0.09-0.17,0.15-0.35,0.17-0.54
	c0.14-1.7,0.91-10.66,2.66-18.98c1.94-9.24,16.13-13.67,18.57-18.76c2.31-4.82,28.57,0.57,31.35,1.16c0.16,0.03,0.31,0.1,0.45,0.19
	l14.89,9.73c0.08,0.05,0.16,0.12,0.23,0.19l21.4,22.21c0.03,0.03,0.05,0.05,0.08,0.08c1.02,0.89,21.37,18.57,28.98,17.02
	l52.06-10.63c0.37-0.08,0.7-0.31,0.89-0.64l9.14-15.73c0.36-0.63,1.16-0.85,1.79-0.5l41.69,22.62c0.16,0.09,0.3,0.21,0.41,0.35
	l22.32,28.46c0.17,0.22,0.41,0.38,0.68,0.46c5.46,1.57,63.6,17.8,62.64-3.43c-0.04-0.89,0.83-1.54,1.69-1.3l18.38,5.04
	c0.23,0.06,0.44,0.18,0.6,0.35l22.87,23.34c0.65,0.66,1.76,0.48,2.16-0.36l6.62-13.81c0.36-0.75,1.32-0.99,1.99-0.5l6.32,4.62
	c0.35,0.26,0.81,0.33,1.23,0.18l9.28-3.2c0.54-0.19,1.14-0.01,1.49,0.44l18.57,23.98c0.61,0.79,1.83,0.66,2.26-0.24l5.78-12.05
	c0.33-0.69,1.18-0.96,1.85-0.59l16.59,9.14c0.28,0.15,0.6,0.2,0.91,0.14l11.88-2.42c0.32-0.06,0.65-0.01,0.93,0.15l6.86,3.93
	c1,0.57,2.2-0.3,1.97-1.43l-1.65-8.08c-0.11-0.54,0.12-1.1,0.59-1.4l16.48-10.48c0.14-0.09,0.29-0.15,0.45-0.18l13.34-2.72
	c0.54-0.11,1.1,0.13,1.4,0.59l10.48,16.52c0.14,0.22,0.34,0.39,0.57,0.5l18.64,8.52c0.64,0.29,1.4,0.04,1.73-0.58l7.75-14.29
	c0.38-0.7,1.28-0.91,1.93-0.46l14.96,10.29c0.3,0.21,0.67,0.28,1.02,0.21l12.91-2.63c0.35-0.07,0.72,0,1.02,0.21l31.8,21.8
	c0.16,0.11,0.29,0.25,0.39,0.41l6.35,10.43c0.29,0.48,0.86,0.73,1.41,0.61l20.73-4.23c0.49-0.1,0.99,0.08,1.31,0.47l9.62,11.88
	c0.31,0.39,0.82,0.57,1.31,0.47l17.87-3.65c0.37-0.07,0.75,0.01,1.05,0.23l10.3,7.42c0.95,0.68,0.63,2.16-0.51,2.39l-684.2,139.65
	c-0.72,0.15-1.43-0.32-1.58-1.04L278.62,323.41z"/>
<path class="st0" d="M1920.67,363.89V584.6l-6.3-0.95l-31.27-4.69l-1-0.15l-123.39-18.54l-11.33-1.7l-59.55-8.95l-3.85-0.58
	l-20.67-3.1l-144.5-21.71l-214.2-32.18l-161.04-24.19c-1.37-0.2-1.88-1.89-0.87-2.82l35.13-32.12c0.37-0.33,0.86-0.49,1.35-0.41
	l30.04,4.51c0.4,0.06,0.82-0.03,1.16-0.26l25.15-17c0.27-0.18,0.59-0.28,0.91-0.28l77.15-0.22c0.36,0,0.71-0.12,0.99-0.34l3.21-2.45
	l14.65-11.21l4.75-3.63c0.32-0.25,0.73-0.36,1.13-0.33l47.23,3.96l4.65,0.39c0.45,0.04,0.88-0.11,1.2-0.39c0.29-0.24,0.5-0.6,0.56-1
	l1.55-10.33c0.09-0.63,0.55-1.15,1.16-1.33l30.92-8.94c0.48-0.14,0.87-0.49,1.06-0.95l0.19-0.45l9.41-22.57l2.01-4.81
	c0.19-0.46,0.59-0.81,1.08-0.94l66.73-18.21c0.27-0.08,0.52-0.21,0.72-0.41c1.67-1.65,10.01-9.97,17.05-18.94
	c3.94-5.02,7.48-10.24,9.22-14.62c5.06-12.69,73.01-1.55,77.41-0.81c0.15,0.02,0.29,0.07,0.43,0.14c0.87,0.43,4.49,2.22,9.98,4.92
	c2.36,1.16,5.07,2.49,8.05,3.94c0.13,0.07,0.26,0.14,0.39,0.2c0.08,0.04,0.15,0.08,0.23,0.11c7.2,3.54,15.95,7.82,25.3,12.38
	c24.31,11.85,52.69,25.57,68.56,32.82c5.45,2.5,9.42,4.22,11.25,4.85c3.52,1.21,9.17,0.81,15.96-0.53c0.84-0.16,1.7-0.34,2.58-0.54
	c1.92-0.41,3.91-0.9,5.95-1.43c7.65-1.99,16.06-4.66,24.17-7.29c1.92-0.63,3.81-1.24,5.68-1.85c0.11-0.04,0.23-0.07,0.34-0.11
	c0.59-0.19,1.17-0.38,1.75-0.57c0.33-0.11,0.66-0.21,0.98-0.32c5.61-1.81,10.86-3.47,15.36-4.69c1.59-0.43,3.16-0.64,4.75-0.65
	c2.89-0.02,5.78,0.62,8.65,1.75c1.36,0.53,2.72,1.17,4.07,1.9c0.46,0.24,0.91,0.5,1.37,0.77c10.19,5.94,20.23,16.61,30.06,24.03
	c4.62,3.49,9.2,6.26,13.72,7.48c2.98,0.8,7.58,0.37,13.27-0.97c0.92-0.21,1.88-0.44,2.86-0.7c9.26-2.47,20.9-6.9,32.99-12.05
	C1919.67,364.32,1920.17,364.11,1920.67,363.89z"/>
<path class="st0" d="M1264.79,394.26c0,0,1.9,15.76,6.73,15.76l-4.3-1.55c0,0,1.83,6.93,3.97,7.66c2.14,0.73-2.84-1.91-2.84-1.91
	s0.94,2.96,2.4,4.37c1.46,1.4-3.1-1.72-3.1-1.72l5.96,6.63l-3.3-0.1c0,0-0.67,1,0.63,2.07c1.3,1.08,2.16,1.26,2.16,1.26l-4.55-0.56
	l6.05,5.19l-8.52-3.64l0.93,14.13l-5.96,1.57l1.35-15.18c0,0-11.23,4.68-11.41,4.88c-0.18,0.2,3.31-3.11,3.81-4.74l-3.33,2.15
	l3.27-4.74l-1.49,0.54l5.68-7.99l-1.16,0.61c0,0,2.23-3.69,2.88-4.74l-2.35,1.16c0,0,3.14-4.34,3.26-6.53l-4.26,0.38
	C1257.29,409.23,1261.38,411.73,1264.79,394.26z"/>
<path class="st0" d="M1166.1,451.99c-0.06-0.04-2.1-4.88-2.1-4.88l1.58,1.09l-1.33-2.03c0.88,0.69,1.85,0.45,1.85,0.45l-2.66-4.05
	c0,0,3.79,1.81,2.23,1.03c-1.55-0.78-3.29-11.2-3.29-11.2s-1.84,9.05-4.98,12.69l3.06-2.72c0,0-0.63,4.96-1.99,5.92
	c-1.36,0.96,1.18-0.18,1.18-0.18s-3.96,5.56-5.77,5.56s3.17,0.42,5.08-1.33s-2.37,4-2.37,4l2.95-2.1l-2.25,2.5l2.35-1.43l-1.61,2.29
	l2.48-1.75l-0.05,6.9l2.77-0.4l-0.48-7.31l2.15,1.95l-0.24-2.72l2.14-0.05c0,0-1.51-2.16-1.84-2.14L1166.1,451.99z"/>
<path class="st0" d="M1175.07,428.61c0,0,1.79,12.44,5.03,12.59l-2.94-1.36c0,0,1.45,5.5,2.91,6.14c1.46,0.64-1.97-1.59-1.97-1.59
	s0.73,2.36,1.75,3.51c1.03,1.15-2.14-1.45-2.14-1.45l4.22,5.4l-2.22-0.18c0,0-0.42,0.76,0.49,1.65c0.91,0.89,1.49,1.06,1.49,1.06
	l-3.08-0.58l4.23,4.27l-5.84-3.14l1.08,11.13l-3.95,1.04l0.42-11.88c0,0-7.4,3.32-7.51,3.47s2.12-2.34,2.41-3.6l-2.17,1.58
	l2.04-3.62l-0.99,0.38l3.56-6.09l-0.76,0.44c0,0,1.38-2.82,1.79-3.63l-1.54,0.84c0,0,1.97-3.3,1.98-5.03l-2.85,0.16
	C1170.51,440.12,1173.34,442.21,1175.07,428.61z"/>
<path class="st0" d="M1207.65,406.97c0,0,2.59,15.67,7.41,15.45l-4.37-1.36c0,0,2.13,6.84,4.3,7.48c2.17,0.63-2.92-1.79-2.92-1.79
	s1.07,2.92,2.59,4.26c1.52,1.34-3.17-1.58-3.17-1.58l6.24,6.37l-3.3,0.04c0,0-0.63,1.03,0.72,2.04s2.22,1.17,2.22,1.17l-4.57-0.36
	l6.27,4.93l-8.67-3.27l1.54,14.08l-5.88,1.83l0.69-15.23c0,0-11.01,5.17-11.19,5.37c-0.17,0.2,3.17-3.25,3.6-4.9l-3.23,2.29
	l3.06-4.88l-1.47,0.61l5.33-8.23l-1.14,0.66c0,0,2.07-3.78,2.68-4.86l-2.3,1.26c0,0,2.95-4.47,2.97-6.67l-4.24,0.56
	C1200.81,422.24,1205,424.57,1207.65,406.97z"/>
<path class="st0" d="M1235.81,396.16c0,0,2.43,15.69,7.25,15.52l-4.35-1.41c0,0,2.06,6.86,4.22,7.52c2.16,0.66-2.9-1.81-2.9-1.81
	s1.04,2.93,2.54,4.28s-3.16-1.61-3.16-1.61l6.18,6.43l-3.3,0.01c0,0-0.64,1.02,0.69,2.05c1.33,1.03,2.2,1.19,2.2,1.19l-4.56-0.4
	l6.22,4.99l-8.64-3.36l1.4,14.09l-5.9,1.77l0.84-15.22c0,0-11.06,5.05-11.24,5.26s3.2-3.22,3.65-4.86l-3.25,2.26l3.11-4.85
	l-1.47,0.59l5.41-8.18l-1.14,0.64c0,0,2.11-3.76,2.72-4.83l-2.31,1.24c0,0,2.99-4.44,3.04-6.64l-4.25,0.52
	C1228.81,411.36,1232.98,413.73,1235.81,396.16z"/>
<path class="st0" d="M1219.66,402.97c0,0,2.05,15.75,6.88,15.69l-4.32-1.51c0,0,1.89,6.91,4.04,7.62c2.15,0.71-2.86-1.88-2.86-1.88
	s0.97,2.95,2.44,4.34c1.47,1.39-3.12-1.69-3.12-1.69l6.02,6.58l-3.3-0.07c0,0-0.66,1,0.64,2.07s2.18,1.24,2.18,1.24l-4.55-0.51
	l6.09,5.14l-8.55-3.57l1.06,14.12l-5.94,1.63l1.21-15.19c0,0-11.18,4.78-11.36,4.98s3.28-3.14,3.77-4.77l-3.31,2.18l3.22-4.77
	l-1.49,0.56l5.61-8.04l-1.16,0.62c0,0,2.2-3.71,2.84-4.76l-2.34,1.18c0,0,3.1-4.36,3.2-6.56l-4.26,0.42
	C1212.3,418,1216.41,420.47,1219.66,402.97z"/>
<path class="st0" d="M1303.46,394.19c0,0,1.74,14.41,6.16,14.41l-3.94-1.42c0,0,1.67,6.33,3.63,7c1.96,0.67-2.6-1.75-2.6-1.75
	s0.86,2.71,2.19,3.99c1.34,1.28-2.84-1.57-2.84-1.57l5.45,6.07l-3.02-0.09c0,0-0.61,0.91,0.57,1.9c1.19,0.98,1.98,1.15,1.98,1.15
	l-4.16-0.51l5.53,4.75l-7.79-3.33l0.85,12.92l-5.45,1.44l1.23-13.88c0,0-10.26,4.28-10.43,4.46s3.02-2.85,3.49-4.33l-3.04,1.96
	l2.99-4.34l-1.36,0.5l5.19-7.31l-1.06,0.55c0,0,2.04-3.37,2.64-4.33l-2.15,1.06c0,0,2.87-3.96,2.98-5.97l-3.9,0.35
	C1296.6,407.87,1300.34,410.16,1303.46,394.19z"/>
<path class="st0" d="M1310.33,390.26c0,0,1.74,14.41,6.16,14.41l-3.94-1.42c0,0,1.67,6.33,3.63,7c1.96,0.67-2.6-1.75-2.6-1.75
	s0.86,2.71,2.19,3.99s-2.84-1.57-2.84-1.57l5.45,6.07l-3.02-0.09c0,0-0.61,0.91,0.57,1.9c1.19,0.98,1.98,1.15,1.98,1.15l-4.16-0.51
	l5.53,4.75l-7.79-3.33l0.85,12.92l-5.45,1.44l1.23-13.88c0,0-10.26,4.28-10.43,4.46s3.02-2.85,3.49-4.33l-3.04,1.96l2.99-4.34
	l-1.36,0.5l5.19-7.31l-1.06,0.55c0,0,2.04-3.37,2.64-4.33l-2.15,1.06c0,0,2.87-3.96,2.98-5.97l-3.9,0.35
	C1303.47,403.94,1307.21,406.23,1310.33,390.26z"/>
<path class="st0" d="M1292.74,396.9c0,0,1.74,14.41,6.16,14.41l-3.94-1.42c0,0,1.67,6.33,3.63,7c1.96,0.67-2.6-1.75-2.6-1.75
	s0.86,2.71,2.19,3.99c1.34,1.28-2.84-1.57-2.84-1.57l5.45,6.07l-3.02-0.09c0,0-0.61,0.91,0.57,1.9c1.19,0.98,1.98,1.15,1.98,1.15
	l-4.16-0.51l5.53,4.75l-7.79-3.33l0.85,12.92l-5.45,1.44l1.23-13.88c0,0-10.26,4.28-10.43,4.46s3.02-2.85,3.49-4.33l-3.04,1.96
	l2.99-4.34l-1.36,0.5l5.19-7.31l-1.06,0.55c0,0,2.04-3.37,2.64-4.33l-2.15,1.06c0,0,2.87-3.96,2.98-5.97l-3.9,0.35
	C1285.89,410.58,1289.62,412.87,1292.74,396.9z"/>
<path class="st0" d="M1258.09,401.88c0,0,2.37,14.32,6.78,14.13l-3.99-1.24c0,0,1.95,6.26,3.93,6.84c1.98,0.58-2.67-1.63-2.67-1.63
	s0.97,2.67,2.37,3.89c1.39,1.23-2.9-1.45-2.9-1.45l5.71,5.82l-3.02,0.04c0,0-0.57,0.94,0.65,1.87s2.03,1.07,2.03,1.07l-4.18-0.33
	l5.73,4.5l-7.93-2.99l1.41,12.87l-5.38,1.67l0.63-13.92c0,0-10.07,4.72-10.23,4.91c-0.16,0.19,2.9-2.97,3.29-4.48l-2.95,2.09
	l2.79-4.46l-1.34,0.56l4.87-7.53l-1.04,0.6c0,0,1.89-3.46,2.45-4.44l-2.1,1.15c0,0,2.69-4.09,2.72-6.1l-3.88,0.52
	C1251.83,415.84,1255.66,417.97,1258.09,401.88z"/>
<path class="st0" d="M1283.83,391.99c0,0,2.22,14.35,6.63,14.19l-3.98-1.28c0,0,1.88,6.27,3.86,6.88c1.98,0.6-2.65-1.66-2.65-1.66
	s0.95,2.68,2.33,3.92s-2.89-1.47-2.89-1.47l5.65,5.88l-3.02,0.01c0,0-0.58,0.93,0.63,1.88c1.22,0.94,2.02,1.09,2.02,1.09l-4.17-0.37
	l5.68,4.56l-7.9-3.07l1.28,12.88l-5.39,1.62l0.77-13.91c0,0-10.12,4.62-10.28,4.81s2.93-2.94,3.34-4.45l-2.98,2.06l2.84-4.43
	l-1.35,0.54l4.95-7.48l-1.05,0.59c0,0,1.93-3.44,2.49-4.42l-2.11,1.13c0,0,2.74-4.06,2.78-6.07l-3.88,0.48
	C1277.44,405.9,1281.25,408.06,1283.83,391.99z"/>
<path class="st0" d="M1269.07,398.23c0,0,1.87,14.4,6.29,14.35l-3.95-1.38c0,0,1.73,6.32,3.69,6.97c1.96,0.65-2.61-1.72-2.61-1.72
	s0.88,2.7,2.23,3.97c1.35,1.27-2.85-1.54-2.85-1.54l5.5,6.02l-3.02-0.06c0,0-0.61,0.92,0.59,1.89c1.19,0.97,1.99,1.13,1.99,1.13
	l-4.16-0.47l5.57,4.7l-7.82-3.26l0.97,12.91l-5.43,1.49l1.1-13.89c0,0-10.22,4.37-10.39,4.56c-0.16,0.18,3-2.87,3.45-4.36
	l-3.02,1.99l2.95-4.36l-1.36,0.51l5.12-7.35l-1.06,0.56c0,0,2.01-3.39,2.6-4.35l-2.14,1.08c0,0,2.83-3.99,2.93-6l-3.89,0.38
	C1262.34,411.97,1266.1,414.22,1269.07,398.23z"/>
<rect x="0.17" y="330.26" class="st0" width="284" height="750"/>
<rect x="284.17" y="358.26" class="st0" width="51" height="722"/>
<rect x="1638.17" y="467.26" class="st0" width="285" height="613"/>
</svg>
