<?xml version="1.0" encoding="utf-8"?>
<!-- Generator: Adobe Illustrator 27.0.0, SVG Export Plug-In . SVG Version: 6.00 Build 0)  -->
<svg version="1.1" id="Layer_1" xmlns="http://www.w3.org/2000/svg" xmlns:xlink="http://www.w3.org/1999/xlink" x="0px" y="0px"
	 viewBox="0 0 1920 1080" style="enable-background:new 0 0 1920 1080;" xml:space="preserve">
<style type="text/css">
	.st0{fill:#78B188;}
	.st1{fill:#72A57E;}
</style>
<path class="st0" d="M10.56,289c0,0,22.38,1.36,35.59,0s33.29-18.81,46.75-17.93c13.46,0.87,17.08-34.03,36.96-34.03
	s48.81,8.73,48.81,8.73s31.63-18.32,35.25-16.58c3.62,1.75,21.69-10.47,21.69-10.47h45.57l55.66-33.16h27.74l8.42-10.47l57.85-27.92
	l72.31,34.9l10.85,3.49l21.69,15.71l32.54-8.73c0,0,70.5,50.61,81.34,64.57c10.85,13.96,48.81,22.69,48.81,22.69l9.04,3.49
	l18.08-1.75l70.5,54.1c16.27,0,32.54,10.47,34.35,13.96c1.81,3.49,70.5,60.57,70.5,60.57l-890.27,4V289z"/>
<path class="st0" d="M1920.83,240.26v24.69l-0.35,0.5l-0.15,0.03v114.69h0.5v23h-608.5c0,0,27.79-14.06,47.3-23
	c6.41-2.94,11.93-5.33,15.27-6.48c13.49-4.65,23.31,1.55,36.8-6.2c3.3-1.9,8.57-5.37,14.73-9.49h0.01
	c19.06-12.73,46.58-31.65,50.28-29.3c1.68,1.06,4.08-0.79,6.96-3.68c5.51-5.55,12.77-14.94,20.03-14.94c11.04,0,20.86,0,23.31-7.76
	c2.46-7.76,3.68-15.51,3.68-15.51s31.9-29.48,41.71-31.03c9.82-1.56,18.41-12.42,22.09-17.07c3.68-4.66,4.9-12.41,7.36-13.96
	c2.45-1.56,15.95-34.14,15.95-34.14s18.38-13.29,30-19.28c2.14-1.1,4.05-1.96,5.57-2.44c9.82-3.1,7.98-11.48,7.98-11.48l14.12-3.63
	l21.46-5.51l4.29-1.1l31.9,15.52c0,0,11.04-6.21,22.08-1.56l5.52,6.4l9.2,10.67l8.59,15.52c0,0,1.23,1.43,3.12,3.51
	c4.89,5.39,14.19,15.1,17.74,15.1c4.9,0,40.48,6.21,40.48,6.21l5.24-1.26l16.38-3.95l4.14-1c0,0,0.75,0.27,2,0.72
	c5.5,1.99,20.54,7.61,22.54,10.14c2.05,2.61,22.2,12.83,28.67,16.07C1920.09,239.89,1920.83,240.26,1920.83,240.26z"/>
<path class="st1" d="M502.86,189.68l37.98,29.49l-26-9.88l-0.79,33.17c-0.1,4.23-4.38,7.08-8.33,5.54l-31.18-12.21
	c0,0,11.25,10.75,16.59,19.96c2.13,3.68-0.62,8.25-4.86,8.01l-28.43,0.42c0,0-14.62,17.05-10.46,27.33
	c4.17,10.28-0.87,24.14-0.87,24.14l3.56,9.87l-54.53,20.27l-141.71,10.63l65.73-153.12l16.99-10.12h27.74l8.42-10.47l57.84-27.92
	L502.86,189.68"/>
<path class="st1" d="M698.98,282.55l8.85,4.61l1.17,7.3l2.86,22.3c-1.2,2.68-3.45,5.06-5.01,4.56l-22.13-5c0,0,7.28,7.5,13.15,11.68
	c3,2.14,8.22,4.89-2.44,5.86l-35.6,3.3c0,0,2,12,12.37,19.26c6.16,4.31,1.88,16.26,1.88,16.26l3.4,6.25l-34.46,19.15l-93.85,21.59
	l28.4-109.28l10.35-8.52l18.58-2.83l4.57-7.87l35.9-24.61L698.98,282.55"/>
<rect x="-0.17" y="291.17" class="st0" width="138" height="787"/>
<rect x="1745.83" y="368.17" class="st0" width="173" height="710"/>
</svg>
