<?xml version="1.0" encoding="utf-8"?>
<!-- Generator: Adobe Illustrator 27.0.0, SVG Export Plug-In . SVG Version: 6.00 Build 0)  -->
<svg version="1.1" id="Layer_1" xmlns="http://www.w3.org/2000/svg" xmlns:xlink="http://www.w3.org/1999/xlink" x="0px" y="0px"
	 viewBox="0 0 1920 1080" style="enable-background:new 0 0 1920 1080;" xml:space="preserve">
<style type="text/css">
	.st0{fill:#062B2E;}
	.st1{fill:none;stroke:#FF0000;stroke-width:0.75;stroke-miterlimit:10;}
</style>
<polygon class="st0" points="784.61,887.7 484.56,864.17 432.18,860.07 -0.31,826.15 -0.31,327.94 20.77,334.72 95.92,358.89 
	173.56,438.59 197.55,447.17 261.84,470.17 352.74,511.67 370.03,519.57 451.06,600.46 479.12,645.06 547.2,753.29 611.54,799.28 
	631,813.19 669.98,841.04 674.05,843.95 688.67,854.4 691.29,855.31 "/>
<polygon class="st0" points="1749.46,633.8 1920.69,581.1 1920.69,1079.3 532.89,1079.3 555.29,1068.8 1311.53,714.24 
	1406.7,697.04 1739.5,636.87 "/>
<path class="st0" d="M2127.22,698.98c-0.06-0.02-0.24-0.11-0.52-0.26c0.2,0.07,0.33,0.13,0.4,0.17
	C2127.16,698.93,2127.2,698.95,2127.22,698.98z"/>
<path class="st0" d="M1531.35,584.23c0.59-0.62,22.38-66.96,22.38-66.96l-16.02,15.28l13.88-27.98c-9,9.64-18.52,6.71-18.52,6.71
	l27.75-55.97c0,0-38.13,25.85-22.48,14.71c15.65-11.14,36.32-153.27,36.32-153.27s15.3,122.35,45.25,170.89l-29.43-35.97
	c0,0,4.67,67.17,17.82,79.8c13.15,12.63-11.63-2.07-11.63-2.07s37.46,74.23,55.44,73.73c17.97-0.5-31.56,6.68-49.9-16.36
	c-18.34-23.04,22.17,53.55,22.17,53.55l-28.54-27.55l21.52,33.19l-22.8-18.7l15.24,30.55l-24.05-22.98l-1.74,93.73l-27.31-4.49
	l7.14-99.51l-21.96,27.27l3.26-37.03l-21.19-0.01c0,0,15.67-29.91,18.91-29.63L1531.35,584.23z"/>
<path class="st0" d="M1701.12,425.29l24.44-9.25C1718.54,421.26,1710.44,424.54,1701.12,425.29z"/>
<path class="st0" d="M1742.93,489.99c-4.97,7.08-10.73,12.43-17.38,14.83C1704.9,512.27,1723.98,500.67,1742.93,489.99z"/>
<path class="st0" d="M1921.19,455.51v14.39l-0.28-0.08l-18.45-4.96c3.99,3.53,10.66,9.49,18.23,16.29c0.07,0.07,0.15,0.13,0.22,0.2
	v171.1c-0.08-0.02-0.15-0.03-0.22-0.05c-3.68-0.8-5.72-1.24-5.72-1.24l5.72,16.18l0.22,0.62v172.96l-44.2-4.98l-9.09-62.62
	l-0.01-0.03l-17.97-123.78l-136.46,59.82l88.88-76.6l-76.97,13.7c1.25-0.35,10.91-3.2,24.41-12.63c2.87-1.99,5.91-4.29,9.08-6.92
	c19.18-15.92,4.51-28.05,4.51-28.05l-56.83,5.98l82.97-95.36c0,0-69.54,47.38-48.5,26.9c21.03-20.47,28.23-60.59,28.23-60.59
	s-12.97,6.9-25.99,14.23c21.08-30,27.98-91.1,27.98-91.1l-45.37,17.15c10.44-7.74,18.51-19.78,24.75-34.24
	c4.36-10.12,7.81-21.43,10.54-33.29c0.01-0.04,0.02-0.07,0.02-0.11c14.3-62.07,8.73-139.06,8.73-139.06
	c19.76,39.35,38,70.6,54.63,95.37c0.69,1.02,1.37,2.04,2.05,3.04c0.01,0.01,0.02,0.03,0.03,0.04c1.58,2.31,3.14,4.57,4.68,6.77
	c0.6,0.85,1.2,1.69,1.79,2.52c2.53,3.55,5.02,6.94,7.47,10.19c0.18,0.25,0.37,0.5,0.56,0.75c2.38,3.14,4.72,6.15,7.03,9.02
	c2.68,3.34,5.31,6.51,7.88,9.5c9.53,11.07,18.35,19.8,26.42,26.66c3.85,3.28,7.53,6.13,11.05,8.6c10.11,7.13,18.82,11.16,26.06,13.3
	l-32.94,0.47l-16.08,0.23c0.54,1.76,1.31,3.61,2.27,5.54c8.14,16.32,30.21,37.84,48.17,53.72c0.07,0.07,0.15,0.14,0.22,0.2
	C1921,455.34,1921.1,455.43,1921.19,455.51z"/>
<path class="st0" d="M2127.22,698.98c-0.06-0.02-0.24-0.11-0.52-0.26c0.2,0.07,0.33,0.13,0.4,0.17
	C2127.16,698.93,2127.2,698.95,2127.22,698.98z"/>
<path class="st0" d="M1642.42,65.8c0,0,22.61,237.02-25.73,255.5l38.98-39.14c0,0,0,107.98-19.49,126.84
	c-19.49,18.85,23.39-38.77,23.39-38.77s-1.56,46.75-12.47,72.84c-10.91,26.09,26.51-36.97,26.51-36.97l-42.1,119.6l32.74-14.13
	c0,0,9.36,11.96-0.78,32.62c-10.13,20.66-18.32,26.7-18.32,26.7l44.05-25.61l-46.78,98.94l75.62-85.89l28.05,209.48h63.76
	l-53.61-216.01c0,0,124.74,25.01,127.07,27.18c2.34,2.17-41.32-32.62-50.67-54.36l38.98,18.48l-45.22-56.54l16.37,2.17l-77.96-94.59
	l13.25,4.35c0,0-32.09-45.13-41.38-57.9l26.57,7.89c0,0-42.88-51.1-49.89-82.63l43.66-10.87
	C1757.02,254.97,1722.71,307.16,1642.42,65.8z"/>
<path class="st0" d="M1325.74,764.07l18.94-32.74l8.77-39.97l33.7-23.37l32.32-17.68l47.78,5.11l22.99-18.79l23.45,2.26l20.53,18.02
	l25.25-13.81l9.61,17.57l18.89,4.37l16.35-2.85c0,0,10.83-1.11,10.75,3.32c-0.08,4.43-145.71,97.67-145.71,97.67l-140.42,6.73"/>
<path class="st0" d="M1105,844.36l5.45-25.36l-2.45-33.83l16.68-14.06l16.94-9.27l31.3,14.12l10.8-12.13l15.31,6.71l16.62,20.16
	l13.24-7.24l9.61,17.57l12.84,7.68l9.79,0.73c0,0,6.64,1.18,7.48,5.11c0.84,3.93-72.78,57.78-72.78,57.78l-87.65-22.13"/>
<path class="st0" d="M1288.01,834.49l-16.47-20.03l-28.02-19.12l-0.64-21.8l3.28-19.03l30.53-15.74l-2.78-16l14.78-7.82l26.12-0.48
	l2.56-14.87l19.73,3.4l14-5.29l6.66-7.21c0,0,5.05-4.47,8.65-2.68c3.6,1.79-0.01,92.93-0.01,92.93l-71.83,54.88"/>
<path class="st0" d="M261.65,415.99c-33.16-2.12-35.75-21.24-35.75-21.24c13.84,15.39,29.42,0.24,29.42,0.24
	c-28.68,3.89-27.7-21.41-27.7-21.41c1.66,16.31,62.19,14.35,62.19,14.35c-32.42,2.01-56.53-34.95-56.53-34.95l31.47,4.55
	c-26.23-3.79-34.44-21.05-34.44-21.05c9.54,8.07,40.27,8.5,40.27,8.5l-19.1-6.78l27.56-5.39c-47.42,3.85-45.68-26.69-45.68-26.69
	l52,6.07c-45.42-5.34-47.3-20.12-47.3-20.12l30.76-0.43l4.48-2.5c-43.84-2.32-38.19-22.93-38.19-22.93
	c13.1,11.27,50.58,11.33,50.58,11.33c-18.55-1.34-44.57-15.82-44.57-15.82c6.18,3.57,36.92-5.37,36.92-5.37l-10.68-0.21
	c-13.87,3.35-33.15-11.49-33.15-11.49l3.6-24.92l6.18,3.57c8.42,6.57,30.54,1.74,30.54,1.74c-14.61-0.77-26.78-9.23-26.78-9.23
	l28.66,5.48l11.25-3.73c-29.06,6.51-44.74-23.88-44.74-23.88l0.96-15.93c10.66,9.58,38.03,5.5,38.03,5.5
	c-14.43-2.09-31.64-17.29-31.64-17.29l1.91-22.48l15.18-3.16c-10.68-0.21-17.41-9.21-17.41-9.21l-1.33-10.8l4.92-4.75
	c-6.75,0.36-9.91-14.82-9.91-14.82s-10.52,17.22-20.27,19.83c-9.75,2.61,13.68-2.04,13.68-2.04l-1.33,9.18
	c0,0-22.89,19.45-27.95,17.38s25.01,2.95,29.75-2.05l-5.59,10.9l-41.86,39.47c0,0-1.35,9.32,43.03-19.81l-7.26,31.68
	c0,0-22.66,17.79-39.06,10.91c0,0,15.47,13.37,39.25,6.31l-3.36,23.21c0,0-7.23,12.95-44.14,8.96l23.04,7.35
	c0,0-17.08,4.71-29.88,2.85c-1.83-0.26-3.57-0.66-5.16-1.23c-12.73-4.52,16.33,16.71,52.39,8.06l-3.67,25.35
	c0,0-14.52,17.06-44.11,8.76l41.89,6.61c0,0-32.17,9.52-42.85,9.32c-10.68-0.21,35.17,6.76,41.01,3.42c0,0-32.81,26.57-60.36,25.59
	c0,0,31.47,7.55,53.97,0.1c0,0-7.9,23.87-28.6,20.42l32.4,4.69l-2.21,15.27c0,0-33.53,13.91-50.2,8.82s30.9,8.49,30.9,8.49
	s-17.63,10.84-30.18,5.01c0,0,23.87,11.65,45.19,7.29l-6.86,47.4l16.5,2.39l6.81-47.06l13.47,7.54l0.97-6.7
	c0,0,20.63,8.87,32.89,5.07l22.74-5.58L261.65,415.99z"/>
<path class="st0" d="M415.63,528.22c-25.07,2.01-29.08-12.03-29.08-12.03c12.03,10.03,22.06-3.01,22.06-3.01
	c-21.06,6.02-23.06-13.04-23.06-13.04c3.01,12.03,48.13,4.01,48.13,4.01c-24.07,5.01-46.13-20.05-46.13-20.05h24.07
	c-20.05,0-28.08-12.03-28.08-12.03c8.02,5.01,31.08,2.01,31.08,2.01l-15.04-3.01l20.05-7.02c-35.1,8.02-37.1-15.04-37.1-15.04
	l39.61-1.09c-34.59,0.92-37.6-9.94-37.6-9.94l22.99-3.66l3.08-2.36c-33.09,3.01-31.08-13.04-31.08-13.04
	c11.03,7.02,39.11,3.01,39.11,3.01c-14.04,1-35.1-7.02-35.1-7.02c5.01,2.01,27.07-8.02,27.07-8.02l-8.02,1
	c-10.03,4.01-26.07-5.01-26.07-5.01v-19.05l5.01,2.01c7.02,4.01,23.06-2.01,23.06-2.01c-11.03,1-21.06-4.01-21.06-4.01l22.06,1
	l8.02-4.01c-21.06,8.02-36.1-13.04-36.1-13.04l-1-12.03c9.02,6.02,29.08,0,29.08,0c-11.03,0-25.57-9.53-25.57-9.53l-1-17.05
	l11.03-4.01c-8.02,1-14.04-5.01-14.04-5.01l-2.17-7.94l3.17-4.09c-5.01,1-9.02-10.03-9.02-10.03s-6.02,14.04-13.04,17.05
	s10.03-3.01,10.03-3.01v7.02c0,0-15.04,17.05-19.05,16.04s19.05-0.5,22.06-4.76l-3.01,8.77l-27.07,34.09c0,0,0,7.13,30.08-19.5
	L366,374.3c0,0-15.04,15.78-28.08,12.4c0,0,13.04,8.34,30.08,0.47v17.75c0,0-4.01,10.48-32.09,11.49l18.05,3.01
	c0,0-12.28,5.37-22.07,5.37c-1.4,0-2.75-0.11-4-0.36c-10.03-2.01,14.04,10.75,40.11,0.36l0,19.38c0,0-9.02,14.35-32.09,11.34
	l32.09,0.41c0,0-23.06,10.62-31.08,11.62c-8.02,1,27.07,1.26,31.08-1.88c0,0-21.7,23.45-42.44,25.7c0,0,24.39,2.25,40.43-5.77
	c0,0-3.33,18.73-19.21,18.39l24.77,0v11.68c0,0-23.61,14.05-36.64,12.04s24.07,3.01,24.07,3.01s-12.03,10.03-22.06,7.02
	c0,0,19.14,6.14,34.64,0.56l0,36.25h12.62l0-35.98l10.9,4.19v-5.12c0,0,16.41,4.41,25.19,0.23l16.43-6.65L415.63,528.22z"/>
<path class="st0" d="M436.72,608.36c-33.48-9.57-34.47-23.77-34.47-23.77c12.73,14.29,29.84,7.33,29.84,7.33
	c-29.44-4.22-26.27-21.93-26.27-21.93c0.28,11.98,61.89,25.32,61.89,25.32c-33.08-6.47-54.38-38.56-54.38-38.56l31.56,10.89
	c-26.3-9.07-33.15-23.32-33.15-23.32c8.99,8.05,40.15,15.83,40.15,15.83l-18.81-9.46l28.43,2.88c-48.46-8.8-44.07-30.06-44.07-30.06
	l52.27,16.96c-45.64-14.84-46.28-25.79-46.28-25.79l31.26,7.18l4.76-0.69c-44.31-12.32-36.79-25.56-36.79-25.56
	c12.33,11.18,50.36,20.35,50.36,20.35c-18.71-5.47-43.88-22.07-43.88-22.07c5.96,4.04,37.94,5.17,37.94,5.17l-10.82-2.75
	c-14.37-1-32.66-16.22-32.66-16.22l5.8-16.81l5.96,4.04c7.98,6.71,30.85,8.67,30.85,8.67c-14.77-4.11-26.39-13.07-26.39-13.07
	l28.62,10.87l11.74,0.09c-30.05-2.45-43.37-27.83-43.37-27.83l2.35-11.07c10,9.39,38.13,13.16,38.13,13.16
	c-14.46-4.99-30.63-19.97-30.63-19.97l3.87-15.49l15.68,1.45c-10.82-2.75-16.88-10.77-16.88-10.77l-0.42-7.99l5.4-2.17
	c-6.88-1.38-8.78-12.93-8.78-12.93s-12.16,9.66-22.28,9.14c-10.12-0.52,14.06,1.88,14.06,1.88l-2.14,6.19c0,0-24.91,8.23-29.87,5.53
	c-4.95-2.7,25.13,8.18,30.38,5.78l-6.61,6.38L383.2,433c0,0-2.17,6.29,45.38-3.59l-10.09,20.72c0,0-24.53,7.12-40.59-1.76
	c0,0,14.56,13.25,39.3,14.03l-5.4,15.66c0,0-8.45,7.43-45.57-4.39l22.75,10.82c0,0-17.74-0.82-30.58-5.25
	c-1.83-0.63-3.57-1.34-5.13-2.13c-12.54-6.31,15.14,15.83,52.48,18.47l-5.9,17.1c0,0-16.2,8.58-45.53-4.51l41.95,14.88
	c0,0-33.47-1.07-44.3-3.82c-10.82-2.75,35.12,13.36,41.33,12.41c0,0-35.59,10.87-63.47,3.47c0,0,31.29,13.02,54.77,13.2
	c0,0-10.07,15.02-30.79,7.53l32.48,11.21l-3.55,10.3c0,0-35.23,1.71-51.72-5.96s30.64,13.54,30.64,13.54s-18.83,3.4-31.06-3.79
	c0,0,23.23,14.08,45.25,16.17l-11.03,31.97l16.54,5.71l10.95-31.74l13.02,8.63l1.56-4.52c0,0,20.18,11.32,32.95,11.6l23.56,1.57
	L436.72,608.36z"/>
<path class="st0" d="M324.45,193.04c0,0-40.48,126.18-80.04,118.51l37.72-5.91c0,0-25.93,53.89-44.61,56.48
	c-18.69,2.59,26.3-11.17,26.3-11.17s-12.36,22.79-26.55,31.99c-14.19,9.21,28.13-9.18,28.13-9.18l-59.3,44.97l27.18,4.39
	c0,0,3.93,9.24-8.4,16c-12.32,6.77-19.72,6.92-19.72,6.92l38.15,2.62l-57.74,33.02l75.56-16.43L231.22,579.6l46.32,22.29
	l12.92-126.53c0,0,84.62,56.08,85.8,57.99s-22.19-30.72-23.76-44.84l23.88,22.85l-19.28-44.02l11.37,6.81l-33.93-74.46l8.58,6.8
	c0,0-12.48-33.74-16.16-43.36l17.41,13.22c0,0-18.88-40.49-16.41-58.68l34.33,9.84C362.29,327.51,324.84,341.56,324.45,193.04z"/>
<path class="st0" d="M364.29,514.82l24.2,7.98l27.28,0.33l20.46,18.93l16.55,18.8l4.23,32.03l15.8,12.53l2.24,15.69l-8.43,15.91
	l12.93,14.69l-9.86,8.69l0.15,12.98l4.43,10.34c0,0,2.43,6.95-0.45,7.5c-2.88,0.55-86.28-82.31-86.28-82.31l-26.53-91.18"/>
<path class="st0" d="M467.08,699.86l22.78,7.39l22.17,1.69l24.18,15.57l20.97,15.26l16.37,24.73l17.83,10.42l8.15,12.12l-0.38,11.73
	l16.39,11.92l-4.46,6.12l5.37,9.94l7.76,8.14c0,0,4.78,5.45,2.67,5.72c-2.11,0.27-102.98-67.55-102.98-67.55l-58.31-71.17"/>
<path class="st0" d="M1419.09,567.86l-29.03,151.91l26.44,4.8l31.54-202.94c23.21,17.76,15.58,75.99,21.75,58.15
	s22.71,44.77,22.71,44.77s2.86-15.74-6.44-37.11c-9.29-21.37-31.38-86.28-31.38-86.28l6.68-61.12l15.15,21.72
	c0,0,18.89,82.02,20.33,66.02c1.43-16-8.95-63.95-8.95-63.95l-21.28-52.64l35.73-229.28l-5.69-1.03L1482.92,208l5.63-63.39
	l-38.86,214.16l-39.93,33.95c0,0-18.51,37.29-23.27,55.4c0,0,39.39-63.31,50.76-61.25c11.37,2.06-3.02,44.39-3.02,44.39
	l-35.43,38.06l-14.26,54.32l24.21-52.51l26.56-24.99L1419.09,567.86z"/>
<path class="st1" d="M2127.22,698.98c-0.06-0.02-0.24-0.11-0.52-0.26c0.2,0.07,0.33,0.13,0.4,0.17
	C2127.16,698.93,2127.2,698.95,2127.22,698.98z"/>
<path class="st1" d="M1937.6,359.36c-0.03-0.02-0.08-0.06-0.17-0.12c0.08,0.04,0.13,0.07,0.15,0.09
	C1937.59,359.34,1937.6,359.34,1937.6,359.36z"/>
<polygon class="st0" points="-0.31,826.15 917.54,898.96 532.89,1079.3 -0.31,1079.8 "/>
</svg>
