<?xml version="1.0" encoding="utf-8"?>
<!-- Generator: Adobe Illustrator 27.0.0, SVG Export Plug-In . SVG Version: 6.00 Build 0)  -->
<svg version="1.1" id="Layer_1" xmlns="http://www.w3.org/2000/svg" xmlns:xlink="http://www.w3.org/1999/xlink" x="0px" y="0px"
	 viewBox="0 0 1920 1080" style="enable-background:new 0 0 1920 1080;" xml:space="preserve">
<style type="text/css">
	.st0{fill:none;}
	.st1{fill:#0F1E25;}
	.st2{fill:none;stroke:#0F1E25;stroke-width:7;stroke-miterlimit:10;}
</style>
<g>
	<g id="level_1_00000016764698126995518930000011268020559979580049_">
		<line class="st0" x1="0.49" y1="826.4" x2="0.49" y2="654.55"/>
		<polygon class="st1" points="1449.33,1080.05 0.49,1080.05 0.49,638.84 55.25,655.52 71.83,660.56 133.83,679.45 340.66,742.43 
			432.22,770.31 487.58,787.17 612.02,825.07 632.99,831.45 670.16,842.77 674.85,844.2 693.72,849.95 804.56,883.7 917.63,918.13 
			1129.93,982.79 1206.95,1006.24 1357.22,1052 		"/>
		<g id="viking_00000087383030077566232100000017215301819403467689_">
			<path class="st1" d="M766.83,746.37c0,0,0.27-7.83,4.87-8.55l3.84,8.72l39.75,52.48l1.32-0.14l13.88,19.21l-1.67,1.07l1.41,2.74
				c0,0-1.87,3.32-8.47,2.04l-3.85-4.7c0,0-16.41,6.92-26.32,30.73c0,0-18.99-12.85-23.25-42.02l8.5,2.41c0,0,5.28,17.92,33.81-2.58
				l-1.85-2.69l0.54-1.17l-36.72-51.25C772.63,752.65,766.53,747.74,766.83,746.37z"/>
			<path class="st1" d="M796.78,701.05l-1.65-9.34l-2-2.29l1.4-1.35l-4.48-11.38l-1.6,0.14l-4.47-9.01c0,0-0.21-1.73-0.76-4.16
				c0,0,0,0,0-0.01c-1.08-4.79-3.45-12.29-8.05-14.61c0,0,4.54-1.24,3.36-6.16c-1.18-4.93-4.26-17.65-8.18-20.26
				c-3.93-2.6-17.64-15.46-17.64-15.46l-0.41-5.39l-0.48-6.2c0,0,0.66-18.83-15.57-23.42c-5.07-1.43-8.92-0.47-11.92,1.58
				c-6.59,4.52-9.05,14.33-11.24,15.61l-1.26,2.16l-1.64,5.26l-0.12,0.72l-0.14,0.9l-1.32,0.89c0,0-0.44-0.36-1.14-0.99
				c-2.32-2.09-7.49-7.1-8.34-11.19l3.37-3.8l3.88-0.23l0.4-1.84c0,0-1.03-0.96-5.2-2.02l-1.87-3.07l-1.05-3.32l-2.69-0.43
				l2.68-1.94l-1.96-2.51l-0.37-2.34l-1.03-1.21c0,0-2.45-16.68,2.82-17.55l9.31-23.51l-24.37-5.5c0,0-7.34,23.52-4.23,26.27
				c0,0-0.4,27.04,1.72,28.56c0,0-4.72,4.77-4.32,7.2l-1.65,2.89l-4.56-3.49c0,0-1.42-1.02-2.37,0.01
				c-0.96,1.03-26.26,23.39-26.26,23.39l-10.1,3.9l2.59,15.8c0,0,0.72,2.88,3.29,4.08c2.57,1.21,7.13,4.7,7.13,4.7
				s12.37,11.05,23.78,13.27c2.06,0.39,4.09,0.51,6.01,0.21l3.91,0.23c0,0-0.1,27.61-1.86,33.64c-0.55,1.9-0.93,3.2-1.19,4.09
				c-0.57,1.94-0.57,1.94-0.57,1.94l2.47,1.17l1.01,0.48l11.43-3.59l1.8,1.08l-0.72,9.35l-1.4,1.35l-1.57,3.42l-5.71,12.38
				l-1.33,0.96l-0.38,2.31l7.29,7.39l13.07,13.25c0,0,7.4,7.9,18.98,4.63c9.63-2.71,27.71-8.72,33.51-10.66
				c1.17-0.38,1.84-0.61,1.84-0.61s-0.01-1.91-1.35-2.8c-0.15-0.11-0.33-0.2-0.52-0.27c-0.72-0.27-0.88-1.09-0.8-2.01
				c0.12-1.45,0.83-3.11,0.83-3.11l-1.03-0.95l0.94-3.4l-2.18-1.14l3.1-7c0,0,1.92,0.31-1.48-0.63c-0.13-0.03-0.23-0.1-0.31-0.19
				c-2.17-2.37,9.54-22.79,9.54-22.79s1.64,7.2,4.36,13.05c1.95,4.22,4.47,7.74,7.34,7.38l-0.98,8.52c0,0,1.17,2.55,2.26,3.12
				c1.09,0.57-0.48,2.97-0.48,2.97l1.29,4.27l-0.76,2.24l1.61,12.1l-1.27,2.95l5.52,13.08l0.2,0.47c0,0-2.29,1.87-4.34,4.28
				c-1.5,1.74-2.88,3.77-3.17,5.56c-0.68,4.23,0.18,8.7,2.69,10.29c2.5,1.59,6.75,4.64,7.76,3.22l3.14,1.04l2.38-2.25l0.24-0.23
				l3.97-0.15l1.65-2.89l0.15,0.03l0.62,0.1l2.91-5.85l-0.11-9.09l1.07-1.8l0.62-3.85l3.14-34.21
				C803.21,717.48,801.81,706.6,796.78,701.05z M678.98,618.74c-5.92-3.26-11.18-1.74-11.5-1.64l2.79-2.7l3.06-1.87l-0.4-2.43
				l1.27-2.96l1.21-0.19l1.02-1.42l1.59-2.51l2.81-0.33l5.23-7.64l-2.53-1.79l3.33-1.04l3.52,0.17c1.33,2.24,8.89,6.92,11.06,8.24
				c0.37,0.21,0.58,0.34,0.58,0.34s-2.45,1.16-6.03,2.52c-0.02,0-0.03,0.01-0.04,0.02c-2.39,0.89-5.27,1.87-8.27,2.65
				c-7.51,1.95-8.83,8.84-8.83,8.84l0.54,3.2l0.14,0.85C679.35,618.94,679.16,618.83,678.98,618.74z"/>
			<circle class="st1" cx="725.7" cy="653.73" r="58.36"/>
			<path class="st1" d="M691.1,710.5c0,0-13.92,34.4-13.53,52.57l-0.01,2l6.19,1.87c0,0,0.39,13.92,1.55,15.08s0.77,3.09,0.77,3.09
				s0.77,10.05,7.34,17.01l-4.06,1.35c0,0-0.77,2.32,0.77,5.41c1.55,3.09,3.48,1.16,4.25,2.32c0.77,1.16-0.77,3.48-0.77,3.48
				s2.32,10.44,2.71,17.39s0,4.88,0,4.88l1.16,7.49l-1.16,2.32l1.16,5.59l-1.16,1.75l0.39,1.93c0,0-1.93,7.34-7.34,11.6
				c-5.41,4.25-13.92,8.12-13.92,8.12l-1.16,3.48v2.17c0,0,4.25,4.02,7.73,4.4c3.48,0.39,20.87-8.12,20.87-8.12l2.71,0.39
				c0,0,9.66-0.77,12.37-2.32l1.55-5.41l-3.48-8.12l1.55-3.48c0,0-3.48-10.82-0.77-17.39l-0.77-1.55c0,0,10.44-22.25,3.48-31.23
				l2.39-0.68l-4.71-7.91l1.16-0.39c0,0-1.16-5.8-0.77-6.18s1.16-5.8,1.16-5.8l-1.93-11.6l5.1,11.34l11.14-0.52l0.77,1.55
				l-2.71,4.25l5.41,8.12l-1.16,1.16c0,0,1.16,4.64,3.09,5.8c1.93,1.16,2.32,0.77,2.32,0.77l1.55,9.66l1.16,0.77v5.45l2.32,5.37
				v3.68c0,0,7.73,11.78,8.5,16.03s-1.16,7.34-1.16,7.34l2.71,10.82c0,0-0.39,6.57-1.93,8.5c-1.55,1.93-1.55,8.5-1.55,8.5
				s8.89,14.69,25.51,2.71c0,0-0.39-18.17-2.32-18.55s-1.16-15.85-1.16-15.85l-1.16-3.48l0.39-3.48l-2.32-3.87
				c0,0,1.16-6.18-0.39-6.57l1.55-6.18l-1.16-6.57l-0.77-3.87l-1.16-0.77l-0.39-5.8l-1.93-3.09l-2.32-6.96l1.93-3.09l-4.25-3.87
				l0.39-2.32l-3.87-8.12c0,0,2.71-2.32-0.39-13.53l1.55-0.77c0,0,0.77-2.32,0-3.09s-7.73-36.33-7.73-36.33l1.16-8.12l-6.57-3.09
				l0.39-0.77l-1.55-3.48l2.71-1.16v-4.64C748.5,709.92,702.51,733.5,691.1,710.5z"/>
		</g>
		<path class="st1" d="M186.57,51.14L136.2-0.45h18.05C164.69,18.85,175.49,36.29,186.57,51.14z"/>
		<path class="st1" d="M327.21,394.22c-6.8,3.2-116.84,17.55-167.96-36.19c-38.61-40.59,2.49,30.11,39.1,89.39
			c21.91,35.48,42.22,66.87,42.84,67.85l-94.36-76.28l74.51,95.38l-74.51-50.87l32.42,52.82l22.22,36.2l-79.48-63.59l7.67,110.46
			l4.17,60.06l6.71,96.55v0.01l1.32,19.05l-58.37-4.4l-26.07-1.96l-0.87-53.54l-0.97-59.74l-0.33-19.9l-2.8-172.02L0.49,561.1V-0.45
			h95.92c12.56,62.63,36.96,164.49,66.55,188.29c43.48,34.97-36-3.18-36-3.18s134.12,216.18,188.76,209.82
			c6.43-0.75,10.04-0.92,11.3-0.75C327.66,393.82,327.7,393.99,327.21,394.22z"/>
		<path class="st1" d="M815.36,996.92l-17.86-90.85c0,0,12.53-67.79,66.1-72.83l46.48-23.09l54.34,23.6c0,0,18.27-5.85,33.08,8.26
			c14.82,14.11,66.48,65.76,66.48,65.76l21.51-10.69l27.92,30.02l19.26,64.95L815.36,996.92z"/>
		<path class="st1" d="M11.08,702.44l51.53-31.3l42.83-49.19l65.01-6.91h58.72l62.91,43.7l46.52-8.7l31.07,21.1l14.93,40.9h45.88
			v31.92l23.07,20.56l25.05,8.52c0,0,16,6.73,12.5,12.86s-278.5,25.14-278.5,25.14l-201.53-98V702.44z"/>
		<path class="st1" d="M1173.29,1032.75l22.44-13.63l18.65-21.42l28.31-3.01h25.57l27.4,19.03l20.26-3.79l13.53,9.19l6.5,17.81
			h19.98v13.9l10.05,8.95l10.91,3.71c0,0,6.97,2.93,5.44,5.6c-1.52,2.67-121.27,10.95-121.27,10.95l-87.76-42.67V1032.75z"/>
	</g>
	<g id="arrow_00000047749425149009752540000009575591591642573999_">
		<line class="st2" x1="1025.65" y1="693.04" x2="936.54" y2="878.23"/>
		<path class="st1" d="M1011.88,718.81l0.6-11.24l9.18-19.03c0,0,2.22,7.73,9.83,4.74l-10.72,19.46L1011.88,718.81z"/>
	</g>
	<g id="arrow_00000061438735837301920100000008513761585210210205_">
		<line class="st2" x1="527.98" y1="619.02" x2="347.69" y2="717.63"/>
		<path class="st1" d="M501.78,631.95l7.04-8.79l18.54-10.12c0,0-2.69,7.57,5.23,9.58l-20.05,9.57L501.78,631.95z"/>
	</g>
	<g id="arrow_00000138546953819831795910000009119363854039668362_">
		<line class="st2" x1="933.48" y1="619.6" x2="916.4" y2="941.56"/>
		<path class="st1" d="M929.7,665.19l-3.91-16.79l1.78-33.1c0,0,5.4,10.03,12.02,1.31l-3.19,34.61L929.7,665.19z"/>
	</g>
</g>
</svg>
