<?xml version="1.0" encoding="utf-8"?>
<!-- Generator: Adobe Illustrator 27.0.0, SVG Export Plug-In . SVG Version: 6.00 Build 0)  -->
<svg version="1.1" id="Layer_1" xmlns="http://www.w3.org/2000/svg" xmlns:xlink="http://www.w3.org/1999/xlink" x="0px" y="0px"
	 viewBox="0 0 1920 1080" style="enable-background:new 0 0 1920 1080;" xml:space="preserve">
<style type="text/css">
	.st0{fill:#417453;}
</style>
<path class="st0" d="M1919.96,387.62v284.2l-105.74,209.86c-0.54,1.07-1.88,1.45-2.9,0.81l-605.64-377.14
	c-1.39-0.86-1.25-2.93,0.25-3.59c4.46-1.98,8.99-4.15,13.48-6.45c0.43-0.22,0.92-0.28,1.4-0.16l11.29,2.7
	c0.23,0.06,0.47,0.07,0.71,0.04l71.09-8.34l41.78-4.9c0.28-0.03,0.56-0.13,0.81-0.28l110.65-66.16c0.05-0.03,0.1-0.06,0.15-0.08
	c0.09-0.05,0.18-0.09,0.28-0.12l73.74-23.13c0.28-0.08,0.57-0.11,0.85-0.08l75.1,8.81c0.07,0,0.14,0.02,0.21,0.03l57.54,13.05
	c0.36,0.08,0.74,0.06,1.09-0.06l71.04-23.48c0.38-0.12,0.79-0.13,1.18-0.03l91.55,24.74c0.19,0.05,0.38,0.13,0.55,0.23l4.21,2.62
	c0.55,0.34,1.23,0.4,1.83,0.16L1919.96,387.62z"/>
<polygon class="st0" points="243.86,364.08 336.39,360.7 396.01,386.68 453.53,386.22 525.88,391.09 587.7,417.04 670.95,476.72 
	771.91,501.64 834.24,500.62 123.97,673.95 44.28,338.5 166.74,329.78 237.97,365.51 "/>
<path class="st0" d="M418.93,319.73c0,0-5.32,44.06-18.82,44.04l12.03-4.33c0,0-5.11,19.36-11.1,21.4
	c-5.98,2.04,7.94-5.34,7.94-5.34s-2.62,8.28-6.71,12.2s8.67-4.8,8.67-4.8l-16.66,18.54l9.22-0.28c0,0,1.88,2.79-1.75,5.8
	c-3.62,3.01-6.05,3.52-6.05,3.52l12.71-1.55l-16.9,14.52l23.81-10.19l-2.6,39.5l16.65,4.4l-3.77-42.43c0,0,31.38,13.09,31.89,13.64
	c0.51,0.55-9.24-8.7-10.66-13.24l9.3,6l-9.13-13.26l4.17,1.52l-15.87-22.34l3.25,1.69c0,0-6.24-10.31-8.06-13.24l6.56,3.25
	c0,0-8.77-12.12-9.11-18.26l11.91,1.06C439.89,361.56,428.46,368.56,418.93,319.73z"/>
<path class="st0" d="M451.93,332.73c0,0-5.32,44.06-18.82,44.04l12.03-4.33c0,0-5.11,19.36-11.1,21.4
	c-5.98,2.04,7.94-5.34,7.94-5.34s-2.62,8.28-6.71,12.2s8.67-4.8,8.67-4.8l-16.66,18.54l9.22-0.28c0,0,1.88,2.79-1.75,5.8
	c-3.62,3.01-6.05,3.52-6.05,3.52l12.71-1.55l-16.9,14.52l23.81-10.19l-2.6,39.5l16.65,4.4l-3.77-42.43c0,0,31.38,13.09,31.89,13.64
	c0.51,0.55-9.24-8.7-10.66-13.24l9.3,6l-9.13-13.26l4.17,1.52l-15.87-22.34l3.25,1.69c0,0-6.24-10.31-8.06-13.24l6.56,3.25
	c0,0-8.77-12.12-9.11-18.26l11.91,1.06C472.89,374.56,461.46,381.56,451.93,332.73z"/>
<path class="st0" d="M430.93,320.73c0,0-5.32,44.06-18.82,44.04l12.03-4.33c0,0-5.11,19.36-11.1,21.4
	c-5.98,2.04,7.94-5.34,7.94-5.34s-2.62,8.28-6.71,12.2s8.67-4.8,8.67-4.8l-16.66,18.54l9.22-0.28c0,0,1.88,2.79-1.75,5.8
	c-3.62,3.01-6.05,3.52-6.05,3.52l12.71-1.55l-16.9,14.52l23.81-10.19l-2.6,39.5l16.65,4.4l-3.77-42.43c0,0,31.38,13.09,31.89,13.64
	c0.51,0.55-9.24-8.7-10.66-13.24l9.3,6l-9.13-13.26l4.17,1.52l-15.87-22.34l3.25,1.69c0,0-6.24-10.31-8.06-13.24l6.56,3.25
	c0,0-8.77-12.12-9.11-18.26l11.91,1.06C451.89,362.56,440.46,369.56,430.93,320.73z"/>
<path class="st0" d="M484.7,341.03c0,0-5.32,44.06-18.82,44.04l12.03-4.33c0,0-5.11,19.36-11.1,21.4s7.94-5.34,7.94-5.34
	s-2.62,8.28-6.71,12.2c-4.09,3.93,8.67-4.8,8.67-4.8l-16.66,18.54l9.22-0.28c0,0,1.88,2.79-1.75,5.8s-6.05,3.52-6.05,3.52
	l12.71-1.55l-16.9,14.52l23.81-10.19l-2.6,39.5l16.65,4.4l-3.77-42.43c0,0,31.38,13.09,31.89,13.64c0.51,0.55-9.24-8.7-10.66-13.24
	l9.3,6l-9.13-13.26l4.17,1.52l-15.87-22.34l3.25,1.69c0,0-6.24-10.31-8.06-13.24l6.56,3.25c0,0-8.77-12.12-9.11-18.26l11.91,1.06
	C505.66,382.86,494.23,389.85,484.7,341.03z"/>
<path class="st0" d="M706.77,482.11c0.16-0.12,5.86-13.63,5.86-13.63l-4.41,3.04l3.72-5.67c-2.47,1.92-5.18,1.26-5.18,1.26
	l7.45-11.33c0,0-10.58,5.06-6.24,2.87c4.34-2.19,9.21-31.3,9.21-31.3s5.14,25.28,13.92,35.48l-8.54-7.6c0,0,1.77,13.86,5.57,16.54
	c3.8,2.69-3.29-0.5-3.29-0.5s11.07,15.53,16.14,15.55c5.07,0.02-8.86,1.16-14.19-3.7c-5.33-4.87,6.62,11.17,6.62,11.17l-8.24-5.86
	l6.3,6.98l-6.56-4l4.5,6.39l-6.94-4.89l0.14,19.28l-7.73-1.11l1.34-20.43l-6.01,5.46l0.67-7.6l-5.98-0.15c0,0,4.22-6.05,5.13-5.97
	L706.77,482.11z"/>
<path class="st0" d="M610.77,445.11c0.16-0.12,5.86-13.63,5.86-13.63l-4.41,3.04l3.72-5.67c-2.47,1.92-5.18,1.26-5.18,1.26
	l7.45-11.33c0,0-10.58,5.06-6.24,2.87c4.34-2.19,9.21-31.3,9.21-31.3s5.14,25.28,13.92,35.48l-8.54-7.6c0,0,1.77,13.86,5.57,16.54
	c3.8,2.69-3.29-0.5-3.29-0.5s11.07,15.53,16.14,15.55c5.07,0.02-8.86,1.16-14.19-3.7c-5.33-4.87,6.62,11.17,6.62,11.17l-8.24-5.86
	l6.3,6.98l-6.56-4l4.5,6.39l-6.94-4.89l0.14,19.28l-7.73-1.11l1.34-20.43l-6.01,5.46l0.67-7.6l-5.98-0.15c0,0,4.22-6.05,5.13-5.97
	L610.77,445.11z"/>
<path class="st0" d="M681.7,416.73c0,0-5,34.78-14.07,35.2l8.23-3.79c0,0-4.06,15.37-8.15,17.17s5.51-4.45,5.51-4.45
	s-2.03,6.58-4.9,9.8c-2.87,3.22,5.98-4.05,5.98-4.05l-11.79,15.1l6.21-0.51c0,0,1.17,2.13-1.36,4.61s-4.18,2.96-4.18,2.96l8.6-1.63
	l-11.83,11.95l16.33-8.77l-3.02,31.11l11.05,2.92l-1.17-33.21c0,0,20.67,9.27,21,9.69s-5.93-6.53-6.74-10.06l6.06,4.42l-5.71-10.12
	l2.76,1.06l-9.95-17.03l2.13,1.23c0,0-3.86-7.89-4.99-10.14l4.31,2.34c0,0-5.51-9.24-5.54-14.05l7.97,0.45
	C694.44,448.91,686.54,454.77,681.7,416.73z"/>
<path class="st0" d="M590.65,356.25c0,0-7.23,43.79-20.72,43.19l12.21-3.8c0,0-5.95,19.12-12.02,20.9s8.17-4.99,8.17-4.99
	s-2.98,8.15-7.23,11.9s8.87-4.42,8.87-4.42l-17.45,17.8l9.22,0.12c0,0,1.75,2.87-2,5.71c-3.75,2.85-6.2,3.26-6.2,3.26l12.77-1
	l-17.51,13.77l24.23-9.14l-4.31,39.35l16.44,5.12l-1.92-42.56c0,0,30.78,14.44,31.27,15.01c0.48,0.57-8.86-9.09-10.07-13.69
	l9.03,6.4l-8.54-13.64l4.1,1.7l-14.89-23.01l3.18,1.83c0,0-5.79-10.57-7.48-13.57l6.42,3.53c0,0-8.24-12.49-8.31-18.64l11.86,1.58
	C609.77,398.95,598.05,405.44,590.65,356.25z"/>
<path class="st0" d="M628.77,451.8c0.16-0.12,5.86-13.63,5.86-13.63l-4.41,3.04l3.72-5.67c-2.47,1.92-5.18,1.26-5.18,1.26
	l7.45-11.33c0,0-10.58,5.06-6.24,2.87c4.34-2.19,9.21-31.3,9.21-31.3s5.14,25.28,13.92,35.48l-8.54-7.6c0,0,1.77,13.86,5.57,16.54
	s-3.29-0.5-3.29-0.5s11.07,15.53,16.14,15.55c5.07,0.02-8.86,1.16-14.19-3.7c-5.33-4.87,6.62,11.17,6.62,11.17l-8.24-5.86l6.3,6.98
	l-6.56-4l4.5,6.39l-6.94-4.89l0.14,19.28l-7.73-1.11l1.34-20.43l-6.01,5.46l0.67-7.6l-5.98-0.15c0,0,4.22-6.05,5.13-5.97
	L628.77,451.8z"/>
<path class="st0" d="M511.93,326.03c0,0-6.79,43.86-20.28,43.39l12.17-3.93c0,0-5.76,19.18-11.8,21.02
	c-6.05,1.84,8.12-5.07,8.12-5.07s-2.9,8.18-7.11,11.97s8.83-4.51,8.83-4.51l-17.27,17.98l9.22,0.03c0,0,1.78,2.85-1.94,5.73
	c-3.72,2.88-6.16,3.32-6.16,3.32l12.76-1.13l-17.37,13.95l24.14-9.39l-3.91,39.39l16.49,4.95l-2.35-42.54
	c0,0,30.93,14.13,31.42,14.69c0.49,0.57-8.95-9-10.21-13.59l9.1,6.31l-8.68-13.55l4.12,1.66l-15.12-22.86l3.2,1.8
	c0,0-5.89-10.51-7.62-13.5l6.45,3.46c0,0-8.37-12.41-8.5-18.55l11.87,1.46C531.49,368.53,519.83,375.14,511.93,326.03z"/>
<path class="st0" d="M557.07,345.08c0,0-5.73,44.01-19.22,43.87l12.07-4.22c0,0-5.29,19.32-11.29,21.3s7.99-5.27,7.99-5.27
	s-2.7,8.25-6.82,12.14c-4.12,3.89,8.72-4.72,8.72-4.72l-16.83,18.39l9.22-0.19c0,0,1.85,2.81-1.8,5.78
	c-3.65,2.97-6.08,3.47-6.08,3.47l12.73-1.44l-17.03,14.36l23.9-9.97l-2.96,39.48l16.61,4.55l-3.38-42.47
	c0,0,31.26,13.37,31.76,13.93c0.5,0.56-9.16-8.78-10.53-13.34l9.25,6.09l-9.01-13.34l4.16,1.56l-15.67-22.48l3.24,1.72
	c0,0-6.15-10.36-7.94-13.31l6.53,3.31c0,0-8.66-12.2-8.94-18.34l11.9,1.17C577.64,387.1,566.15,393.99,557.07,345.08z"/>
<path class="st0" d="M514.75,511.29l31.61,10.16l25.94,14.7l40.35,4.01l36.53,1.94l39.77-9.73l28.82,3.89l19.63-4.67l9.88-10.56
	l28.55,1.51l0.46-8.62l14.65-4.79l15.71-1.47c0,0,10.05-1.29,7.96-3.06c-2.09-1.77-172.91-15.99-172.91-15.99L514.9,508.42"/>
<path class="st0" d="M362.46,567.22l31.33,11.57l25.65,16.94l40.07,4.31l36.29,1.93l39.62-11.74l28.61,4.27l19.56-5.64l9.92-12.43
	l28.36,1.51l0.53-10.08l14.6-5.74l15.63-1.87c0,0,10-1.6,7.94-3.65c-2.06-2.05-171.72-17.07-171.72-17.07l-126.21,24.34"/>
<path class="st0" d="M1578.99,337.68c0,0,5.32,44.06,18.82,44.04l-12.03-4.33c0,0,5.11,19.36,11.1,21.4
	c5.98,2.04-7.94-5.34-7.94-5.34s2.62,8.28,6.71,12.2c4.09,3.93-8.67-4.8-8.67-4.8l16.66,18.54l-9.22-0.28c0,0-1.88,2.79,1.75,5.8
	c3.62,3.01,6.05,3.52,6.05,3.52l-12.71-1.55l16.9,14.52l-23.81-10.19l2.6,39.5l-16.65,4.4l3.77-42.43c0,0-31.38,13.09-31.89,13.64
	c-0.51,0.55,9.24-8.7,10.66-13.24l-9.3,6l9.13-13.26l-4.17,1.52l15.87-22.34l-3.25,1.69c0,0,6.24-10.31,8.06-13.24l-6.56,3.25
	c0,0,8.77-12.12,9.11-18.26l-11.91,1.06C1558.03,379.51,1569.46,386.5,1578.99,337.68z"/>
<path class="st0" d="M1545.99,350.68c0,0,5.32,44.06,18.82,44.04l-12.03-4.33c0,0,5.11,19.36,11.1,21.4
	c5.98,2.04-7.94-5.34-7.94-5.34s2.62,8.28,6.71,12.2c4.09,3.93-8.67-4.8-8.67-4.8l16.66,18.54l-9.22-0.28c0,0-1.88,2.79,1.75,5.8
	c3.62,3.01,6.05,3.52,6.05,3.52l-12.71-1.55l16.9,14.52l-23.81-10.19l2.6,39.5l-16.65,4.4l3.77-42.43c0,0-31.38,13.09-31.89,13.64
	c-0.51,0.55,9.24-8.7,10.66-13.24l-9.3,6l9.13-13.26l-4.17,1.52l15.87-22.34l-3.25,1.69c0,0,6.24-10.31,8.06-13.24l-6.56,3.25
	c0,0,8.77-12.12,9.11-18.26l-11.91,1.06C1525.03,392.51,1536.46,399.5,1545.99,350.68z"/>
<path class="st0" d="M1566.99,338.68c0,0,5.32,44.06,18.82,44.04l-12.03-4.33c0,0,5.11,19.36,11.1,21.4
	c5.98,2.04-7.94-5.34-7.94-5.34s2.62,8.28,6.71,12.2c4.09,3.93-8.67-4.8-8.67-4.8l16.66,18.54l-9.22-0.28c0,0-1.88,2.79,1.75,5.8
	c3.62,3.01,6.05,3.52,6.05,3.52l-12.71-1.55l16.9,14.52l-23.81-10.19l2.6,39.5l-16.65,4.4l3.77-42.43c0,0-31.38,13.09-31.89,13.64
	c-0.51,0.55,9.24-8.7,10.66-13.24l-9.3,6l9.13-13.26l-4.17,1.52l15.87-22.34l-3.25,1.69c0,0,6.24-10.31,8.06-13.24l-6.56,3.25
	c0,0,8.77-12.12,9.11-18.26l-11.91,1.06C1546.03,380.51,1557.46,387.5,1566.99,338.68z"/>
<path class="st0" d="M1513.22,358.98c0,0,5.32,44.06,18.82,44.04l-12.03-4.33c0,0,5.11,19.36,11.1,21.4
	c5.98,2.04-7.94-5.34-7.94-5.34s2.62,8.28,6.71,12.2c4.09,3.93-8.67-4.8-8.67-4.8l16.66,18.54l-9.22-0.28c0,0-1.88,2.79,1.75,5.8
	c3.62,3.01,6.05,3.52,6.05,3.52l-12.71-1.55l16.9,14.52l-23.81-10.19l2.6,39.5l-16.65,4.4l3.77-42.43c0,0-31.38,13.09-31.89,13.64
	c-0.51,0.55,9.24-8.7,10.66-13.24l-9.3,6l9.13-13.26l-4.17,1.52l15.87-22.34l-3.25,1.69c0,0,6.24-10.31,8.06-13.24l-6.56,3.25
	c0,0,8.77-12.12,9.11-18.26l-11.91,1.06C1492.26,400.8,1503.69,407.8,1513.22,358.98z"/>
<path class="st0" d="M1408.71,374.38c0,0,6.34,43.93,19.83,43.6l-12.13-4.05c0,0,5.56,19.24,11.59,21.14
	c6.03,1.9-8.06-5.15-8.06-5.15s2.81,8.21,6.99,12.04c4.18,3.83-8.78-4.6-8.78-4.6l17.08,18.15l-9.22-0.06c0,0-1.81,2.83,1.88,5.75
	c3.69,2.92,6.13,3.38,6.13,3.38l-12.75-1.26l17.23,14.12l-24.04-9.63l3.51,39.43l-16.54,4.78l2.78-42.51
	c0,0-31.07,13.81-31.57,14.37c-0.49,0.56,9.04-8.91,10.35-13.49l-9.16,6.22l8.82-13.46l-4.14,1.61l15.35-22.7l-3.21,1.77
	c0,0,6-10.45,7.75-13.42l-6.49,3.4c0,0,8.49-12.32,8.69-18.46l-11.89,1.34C1388.72,416.68,1400.3,423.41,1408.71,374.38z"/>
<path class="st0" d="M1369.14,469.74c-0.16-0.12-5.86-13.63-5.86-13.63l4.41,3.04l-3.72-5.67c2.47,1.92,5.18,1.26,5.18,1.26
	l-7.45-11.33c0,0,10.58,5.06,6.24,2.87c-4.34-2.19-9.21-31.3-9.21-31.3s-5.14,25.28-13.92,35.48l8.54-7.6c0,0-1.77,13.86-5.57,16.54
	c-3.8,2.69,3.29-0.5,3.29-0.5s-11.07,15.53-16.14,15.55s8.86,1.16,14.19-3.7c5.33-4.87-6.62,11.17-6.62,11.17l8.24-5.86l-6.3,6.98
	l6.56-4l-4.5,6.39l6.94-4.89l-0.14,19.28l7.73-1.11l-1.34-20.43l6.01,5.46l-0.67-7.6l5.98-0.15c0,0-4.22-6.05-5.13-5.97
	L1369.14,469.74z"/>
<path class="st0" d="M1474.82,343.41c0,0,13.56,42.26,26.81,39.69l-12.63-1.98c0,0,8.68,18.05,14.94,18.92
	c6.26,0.87-8.81-3.74-8.81-3.74s4.14,7.63,8.89,10.71c4.75,3.08-9.42-3.08-9.42-3.08l19.86,15.06l-9.1,1.47c0,0-1.31,3.09,2.81,5.36
	c4.13,2.27,6.6,2.32,6.6,2.32l-12.78,0.88l19.34,11.06l-25.31-5.5l10.02,38.3l-15.52,7.47l-4.33-42.38c0,0-28.34,18.78-28.74,19.42
	c-0.39,0.64,7.43-10.29,7.96-15.02l-8,7.65l6.46-14.74l-3.81,2.28l11.36-24.94l-2.88,2.28c0,0,4.18-11.3,5.41-14.52l-5.83,4.43
	c0,0,6.32-13.56,5.5-19.65l-11.5,3.29C1462.15,388.45,1474.69,393.16,1474.82,343.41z"/>
<path class="st0" d="M1284.03,469.35c0,0,4.06,17.27,11.44,17.48l-6.69-1.88c0,0,3.3,7.64,6.63,8.53c3.32,0.89-4.48-2.21-4.48-2.21
	s1.65,3.27,3.99,4.87c2.34,1.6-4.87-2.01-4.87-2.01l9.59,7.5l-5.05-0.26c0,0-0.95,1.06,1.11,2.29c2.06,1.23,3.4,1.47,3.4,1.47
	l-6.99-0.81l9.62,5.93l-13.29-4.35l2.45,15.45l-8.99,1.45l0.95-16.49c0,0-16.82,4.6-17.08,4.81c-0.26,0.21,4.83-3.25,5.48-5
	l-4.93,2.19l4.64-5.03l-2.24,0.53l8.09-8.46l-1.73,0.61c0,0,3.14-3.92,4.06-5.03l-3.5,1.16c0,0,4.48-4.59,4.5-6.98l-6.49,0.22
	C1273.66,485.33,1280.09,488.24,1284.03,469.35z"/>
<path class="st0" d="M1349.59,439.08c0,0,11.03,20.99,21.8,19.71l-10.28-0.98c0,0,7.06,8.96,12.15,9.4
	c5.09,0.43-7.17-1.86-7.17-1.86s3.37,3.79,7.23,5.32c3.87,1.53-7.66-1.53-7.66-1.53l16.16,7.48l-7.41,0.73c0,0-1.07,1.54,2.29,2.66
	s5.37,1.15,5.37,1.15l-10.39,0.44l15.73,5.49l-20.59-2.73l8.15,19.02l-12.62,3.71l-3.52-21.05c0,0-23.05,9.33-23.37,9.65
	c-0.32,0.32,6.04-5.11,6.47-7.46l-6.51,3.8l5.25-7.32l-3.1,1.13l9.24-12.39l-2.34,1.13c0,0,3.4-5.61,4.4-7.21l-4.74,2.2
	c0,0,5.14-6.74,4.47-9.76l-9.35,1.64C1339.28,461.44,1349.49,463.78,1349.59,439.08z"/>
<path class="st0" d="M1327.08,486.77c-0.13-0.06-4.77-6.77-4.77-6.77l3.59,1.51l-3.03-2.81c2.01,0.95,4.21,0.62,4.21,0.62
	l-6.06-5.63c0,0,8.61,2.51,5.08,1.43c-3.53-1.09-7.49-15.55-7.49-15.55s-4.18,12.56-11.32,17.62l6.95-3.78c0,0-1.44,6.88-4.53,8.22
	c-3.09,1.34,2.68-0.25,2.68-0.25s-9,7.71-13.12,7.72c-4.12,0.01,7.2,0.58,11.54-1.84c4.34-2.42-5.38,5.55-5.38,5.55l6.7-2.91
	l-5.12,3.47l5.33-1.99l-3.66,3.17l5.65-2.43l-0.12,9.58l6.29-0.55L1319.4,491l4.89,2.71l-0.54-3.77l4.86-0.07
	c0,0-3.43-3.01-4.18-2.96L1327.08,486.77z"/>
<path class="st0" d="M1385.4,433.76c0,0,4.66,21.86,15.64,21.79l-9.82-2.1c0,0,4.3,9.59,9.19,10.58s-6.5-2.62-6.5-2.62
	s2.19,4.1,5.55,6.03c3.35,1.93-7.09-2.35-7.09-2.35l13.69,9.13l-7.5-0.1c0,0-1.51,1.39,1.47,2.87c2.97,1.48,4.95,1.72,4.95,1.72
	l-10.35-0.71l13.85,7.13l-19.44-4.95l2.41,19.61l-13.51,2.26l2.75-21.09c0,0-25.43,6.64-25.84,6.92c-0.41,0.28,7.45-4.36,8.57-6.63
	l-7.52,3.02l7.32-6.63l-3.38,0.77l12.74-11.17l-2.63,0.86c0,0,5-5.15,6.46-6.61l-5.31,1.64c0,0,7.05-6.06,7.28-9.11l-9.68,0.58
	C1368.67,454.63,1378.01,458.05,1385.4,433.76z"/>
<path class="st0" d="M1442.4,905.63c0,0,1.04-13.39,2.3-19.55c1.26-6.16,12.83-26.29,12.83-26.29l-14.55,2.02
	c0,0-5.24,2.75-10.27,4.8c-5.03,2.04-9.56-2.16-12.55-1.57c-2.99,0.59-4.43-12.73-4.43-12.73l2.65-8.98l7.97-15.22
	c0,0,6.13-13.96,4.07-16.53s-13.91-17.34-13.91-17.34l-10.48,1.32l5.05-23.94l11.18-17.71c0,0-0.59-32.44-12.67-23.03l-0.41-9.79
	l8.83-17.14l-9.97,1.97l1.75-5.02l-3.65-3.11l10.23-16.04l-8.97,1.77l2.22-10.2l-3.39-4.23l1.3-5.57l-5.68,4.55l-8.46-3.47
	l-3.83-4.77l7.21-9.72l1.48-10.67l-9.97,1.52l3.18-9.99l-3.7-4.62l6.18-19.48l4.74-6.22l-5.93-7.39l5.01-8.15l-5.08-6.34l2.76-8.08
	l181.84,226.76L1442.4,905.63z"/>
<path class="st0" d="M1487.58,616.32l-31.94,17.52l-29.75,31.42l-35.79-1.59l26.36,18.09l-85.51-62.25l-26.13,1.59l-13.74-18.5
	l-2.36-31.27l-18.32-3.48c-3.46-0.66-5.74-4-5.08-7.46l3.22-16.95l-9.52-17.3l-12.25-8.74c0,0,8.4-5.6,11.12-9.7
	c2.72-4.11,127.31-27.89,127.31-27.89l103.85,128.79"/>
<rect x="-0.54" y="340.76" class="st0" width="193" height="621"/>
<polyline class="st0" points="44.28,340.5 -0.54,343.03 -0.54,1079.76 1500.73,1079.76 1918.46,1079.76 1919.96,673.82 
	1811.32,884.49 1488.97,683.76 1489.39,965.56 44.28,940.39 44.28,340.5 "/>
</svg>
