<?xml version="1.0" encoding="utf-8"?>
<!-- Generator: Adobe Illustrator 27.0.0, SVG Export Plug-In . SVG Version: 6.00 Build 0)  -->
<svg version="1.1" id="Layer_1" xmlns="http://www.w3.org/2000/svg" xmlns:xlink="http://www.w3.org/1999/xlink" x="0px" y="0px"
	 viewBox="0 0 1920 1080" style="enable-background:new 0 0 1920 1080;" xml:space="preserve">
<style type="text/css">
	.st0{fill:#599E71;}
</style>
<polygon class="st0" points="1920.05,261.08 1920.05,437.02 1918.55,436.98 1897.43,436.35 1794.37,433.29 1778.67,432.82 
	1765.59,432.44 1751.72,432.03 1686.95,430.1 1666.32,429.49 1661.23,429.34 1652.33,429.08 1457.38,423.29 1317.17,419.13 
	1155.12,414.32 1235.07,408.6 1352.06,384.92 1356.8,383.96 1398.2,363.94 1398.21,363.94 1445.71,340.99 1483.4,329.77 
	1517.14,319.72 1523.21,319.04 1608.17,309.58 1620.26,308.67 1631.69,307.81 1633.2,307.69 1636.04,307.48 1655.11,306.04 
	1681.81,304.02 1722.11,291.65 1737.4,286.95 1737.41,286.95 1750.41,282.96 1762.46,282.21 1769.71,281.76 1799.37,279.92 
	1806.14,279.5 1823.71,278.4 1832.01,277.89 1836.34,277.62 1838.26,277.5 1869.64,275.55 1873.02,275.65 1877.6,275.78 
	1884.48,273.39 1918.55,261.6 "/>
<path class="st0" d="M1970.45,306.48c-0.03-0.02-0.08-0.06-0.17-0.12c0.08,0.04,0.13,0.07,0.15,0.09
	C1970.45,306.46,1970.45,306.46,1970.45,306.48z"/>
<polygon class="st0" points="366.03,318.38 485.23,324.43 553.74,342.63 627.35,347.22 718.34,355.77 789.67,374.13 878.43,411.42 
	1000.06,432.54 1079.98,437.26 121.55,465.63 118.62,288.64 277.62,294.49 358.08,318.61 "/>
<rect x="-0.45" y="288.92" class="st0" width="179" height="794"/>
<rect x="1721.55" y="393.92" class="st0" width="200" height="689"/>
</svg>
